%TF.GenerationSoftware,KiCad,Pcbnew,(5.1.6)-1*%
%TF.CreationDate,2020-12-06T19:46:19+01:00*%
%TF.ProjectId,05_Rond,30355f52-6f6e-4642-9e6b-696361645f70,rev?*%
%TF.SameCoordinates,Original*%
%TF.FileFunction,Copper,L1,Top*%
%TF.FilePolarity,Positive*%
%FSLAX46Y46*%
G04 Gerber Fmt 4.6, Leading zero omitted, Abs format (unit mm)*
G04 Created by KiCad (PCBNEW (5.1.6)-1) date 2020-12-06 19:46:19*
%MOMM*%
%LPD*%
G01*
G04 APERTURE LIST*
%TA.AperFunction,Profile*%
%ADD10C,0.150000*%
%TD*%
%TA.AperFunction,ComponentPad*%
%ADD11C,6.400000*%
%TD*%
%TA.AperFunction,ComponentPad*%
%ADD12C,0.800000*%
%TD*%
%TA.AperFunction,Conductor*%
%ADD13C,0.254000*%
%TD*%
G04 APERTURE END LIST*
D10*
X110000000Y-60000000D02*
G75*
G03*
X110000000Y-60000000I-5000000J0D01*
G01*
D11*
%TO.P,H1,1*%
%TO.N,GND*%
X105000000Y-60000000D03*
D12*
X107400000Y-60000000D03*
X106697056Y-61697056D03*
X105000000Y-62400000D03*
X103302944Y-61697056D03*
X102600000Y-60000000D03*
X103302944Y-58302944D03*
X105000000Y-57600000D03*
X106697056Y-58302944D03*
%TD*%
D13*
%TO.N,GND*%
G36*
X105954615Y-55817559D02*
G01*
X106686077Y-56055226D01*
X107363348Y-56419681D01*
X107964659Y-56899210D01*
X108470683Y-57478401D01*
X108865156Y-58138639D01*
X109135401Y-58858702D01*
X109272730Y-59615447D01*
X109272730Y-60384553D01*
X109135401Y-61141298D01*
X108865156Y-61861361D01*
X108470683Y-62521599D01*
X107964659Y-63100790D01*
X107363348Y-63580319D01*
X106686077Y-63944774D01*
X105954615Y-64182441D01*
X105192470Y-64285680D01*
X104424139Y-64251174D01*
X103674317Y-64080032D01*
X102967103Y-63777755D01*
X102325229Y-63354057D01*
X101769323Y-62822557D01*
X101680921Y-62700881D01*
X102478724Y-62700881D01*
X102838912Y-63190548D01*
X103502882Y-63550849D01*
X104224385Y-63774694D01*
X104975695Y-63853480D01*
X105727938Y-63784178D01*
X106452208Y-63569452D01*
X107120670Y-63217555D01*
X107161088Y-63190548D01*
X107521276Y-62700881D01*
X105000000Y-60179605D01*
X102478724Y-62700881D01*
X101680921Y-62700881D01*
X101317255Y-62200338D01*
X100983552Y-61507398D01*
X100778942Y-60766009D01*
X100710000Y-60000000D01*
X100712187Y-59975695D01*
X101146520Y-59975695D01*
X101215822Y-60727938D01*
X101430548Y-61452208D01*
X101782445Y-62120670D01*
X101809452Y-62161088D01*
X102299119Y-62521276D01*
X104820395Y-60000000D01*
X105179605Y-60000000D01*
X107700881Y-62521276D01*
X108190548Y-62161088D01*
X108550849Y-61497118D01*
X108774694Y-60775615D01*
X108853480Y-60024305D01*
X108784178Y-59272062D01*
X108569452Y-58547792D01*
X108217555Y-57879330D01*
X108190548Y-57838912D01*
X107700881Y-57478724D01*
X105179605Y-60000000D01*
X104820395Y-60000000D01*
X102299119Y-57478724D01*
X101809452Y-57838912D01*
X101449151Y-58502882D01*
X101225306Y-59224385D01*
X101146520Y-59975695D01*
X100712187Y-59975695D01*
X100778942Y-59233991D01*
X100983552Y-58492602D01*
X101317255Y-57799662D01*
X101680920Y-57299119D01*
X102478724Y-57299119D01*
X105000000Y-59820395D01*
X107521276Y-57299119D01*
X107161088Y-56809452D01*
X106497118Y-56449151D01*
X105775615Y-56225306D01*
X105024305Y-56146520D01*
X104272062Y-56215822D01*
X103547792Y-56430548D01*
X102879330Y-56782445D01*
X102838912Y-56809452D01*
X102478724Y-57299119D01*
X101680920Y-57299119D01*
X101769323Y-57177443D01*
X102325229Y-56645943D01*
X102967103Y-56222245D01*
X103674317Y-55919968D01*
X104424139Y-55748826D01*
X105192470Y-55714320D01*
X105954615Y-55817559D01*
G37*
X105954615Y-55817559D02*
X106686077Y-56055226D01*
X107363348Y-56419681D01*
X107964659Y-56899210D01*
X108470683Y-57478401D01*
X108865156Y-58138639D01*
X109135401Y-58858702D01*
X109272730Y-59615447D01*
X109272730Y-60384553D01*
X109135401Y-61141298D01*
X108865156Y-61861361D01*
X108470683Y-62521599D01*
X107964659Y-63100790D01*
X107363348Y-63580319D01*
X106686077Y-63944774D01*
X105954615Y-64182441D01*
X105192470Y-64285680D01*
X104424139Y-64251174D01*
X103674317Y-64080032D01*
X102967103Y-63777755D01*
X102325229Y-63354057D01*
X101769323Y-62822557D01*
X101680921Y-62700881D01*
X102478724Y-62700881D01*
X102838912Y-63190548D01*
X103502882Y-63550849D01*
X104224385Y-63774694D01*
X104975695Y-63853480D01*
X105727938Y-63784178D01*
X106452208Y-63569452D01*
X107120670Y-63217555D01*
X107161088Y-63190548D01*
X107521276Y-62700881D01*
X105000000Y-60179605D01*
X102478724Y-62700881D01*
X101680921Y-62700881D01*
X101317255Y-62200338D01*
X100983552Y-61507398D01*
X100778942Y-60766009D01*
X100710000Y-60000000D01*
X100712187Y-59975695D01*
X101146520Y-59975695D01*
X101215822Y-60727938D01*
X101430548Y-61452208D01*
X101782445Y-62120670D01*
X101809452Y-62161088D01*
X102299119Y-62521276D01*
X104820395Y-60000000D01*
X105179605Y-60000000D01*
X107700881Y-62521276D01*
X108190548Y-62161088D01*
X108550849Y-61497118D01*
X108774694Y-60775615D01*
X108853480Y-60024305D01*
X108784178Y-59272062D01*
X108569452Y-58547792D01*
X108217555Y-57879330D01*
X108190548Y-57838912D01*
X107700881Y-57478724D01*
X105179605Y-60000000D01*
X104820395Y-60000000D01*
X102299119Y-57478724D01*
X101809452Y-57838912D01*
X101449151Y-58502882D01*
X101225306Y-59224385D01*
X101146520Y-59975695D01*
X100712187Y-59975695D01*
X100778942Y-59233991D01*
X100983552Y-58492602D01*
X101317255Y-57799662D01*
X101680920Y-57299119D01*
X102478724Y-57299119D01*
X105000000Y-59820395D01*
X107521276Y-57299119D01*
X107161088Y-56809452D01*
X106497118Y-56449151D01*
X105775615Y-56225306D01*
X105024305Y-56146520D01*
X104272062Y-56215822D01*
X103547792Y-56430548D01*
X102879330Y-56782445D01*
X102838912Y-56809452D01*
X102478724Y-57299119D01*
X101680920Y-57299119D01*
X101769323Y-57177443D01*
X102325229Y-56645943D01*
X102967103Y-56222245D01*
X103674317Y-55919968D01*
X104424139Y-55748826D01*
X105192470Y-55714320D01*
X105954615Y-55817559D01*
%TD*%
M02*
