  0
SECTION
  2
HEADER
  9
$ANGBASE
  50
0.0
  9
$ANGDIR
  70
1
  9
$MEASUREMENT
  70
1
  0
ENDSEC
  0
SECTION
  2
TABLES
  0
TABLE
  2
LTYPE
  70
4
  0
LTYPE
  5
40F
  2
CONTINUOUS
  70
0
  3
Solid line
  72
65
  73
0
  40
0.0
  0
LTYPE
  5
410
  2
DASHDOT
 70
0
  3
Dash Dot ____ _ ____ _
 72
65
 73
4
 40
2.0
 49
1.25
 49
-0.25
 49
0.25
 49
-0.25
  0
LTYPE
  5
411
  2
DASHED
 70
0
  3
Dashed __ __ __ __ __
 72
65
 73
2
 40
0.75
 49
0.5
 49
-0.25
  0
LTYPE
  5
43B
  2
DOTTED
 70
0
  3
Dotted .  .  .  .
 72
65
 73
2
 40
0.2
 49
0.0
 49
-0.2
  0
ENDTAB
  0
TABLE
  2
STYLE
  70
4
  0
STYLE
  2
KICAD
  70
0
  40
0
  41
1
  42
1
  50
0
  71
0
  3
isocp.shx
  0
STYLE
  2
KICADB
  70
0
  40
0
  41
1
  42
1
  50
0
  71
0
  3
isocp.shx
  0
STYLE
  2
KICADI
  70
0
  40
0
  41
1
  42
1
  50
15
  71
0
  3
isocp.shx
  0
STYLE
  2
KICADBI
  70
0
  40
0
  41
1
  42
1
  50
15
  71
0
  3
isocp.shx
  0
ENDTAB
  0
TABLE
  2
LAYER
  70
1
  0
LAYER
  2
BLACK
  70
0
  62
7
  6
CONTINUOUS
  0
ENDTAB
  0
ENDSEC
  0
SECTION
  2
ENTITIES
0
LINE
8
BLACK
6
CONTINUOUS
10
104.108
20
-154.996
11
104.099
21
-154.994
0
LINE
8
BLACK
6
CONTINUOUS
10
104.099
20
-154.994
11
104.097
21
-154.994
0
LINE
8
BLACK
6
CONTINUOUS
10
104.097
20
-154.994
11
104.095
21
-154.993
0
LINE
8
BLACK
6
CONTINUOUS
10
104.095
20
-154.993
11
103.237
21
-154.759
0
LINE
8
BLACK
6
CONTINUOUS
10
103.237
20
-154.759
11
103.237
21
-154.759
0
LINE
8
BLACK
6
CONTINUOUS
10
103.237
20
-154.759
11
103.237
21
-154.759
0
LINE
8
BLACK
6
CONTINUOUS
10
103.237
20
-154.759
11
103.229
21
-154.756
0
LINE
8
BLACK
6
CONTINUOUS
10
103.229
20
-154.756
11
103.227
21
-154.755
0
LINE
8
BLACK
6
CONTINUOUS
10
103.227
20
-154.755
11
103.225
21
-154.754
0
LINE
8
BLACK
6
CONTINUOUS
10
103.225
20
-154.754
11
102.423
21
-154.371
0
LINE
8
BLACK
6
CONTINUOUS
10
102.423
20
-154.371
11
102.423
21
-154.371
0
LINE
8
BLACK
6
CONTINUOUS
10
102.423
20
-154.371
11
102.422
21
-154.371
0
LINE
8
BLACK
6
CONTINUOUS
10
102.422
20
-154.371
11
102.415
21
-154.367
0
LINE
8
BLACK
6
CONTINUOUS
10
102.415
20
-154.367
11
102.413
21
-154.366
0
LINE
8
BLACK
6
CONTINUOUS
10
102.413
20
-154.366
11
102.411
21
-154.365
0
LINE
8
BLACK
6
CONTINUOUS
10
102.411
20
-154.365
11
101.689
21
-153.846
0
LINE
8
BLACK
6
CONTINUOUS
10
101.689
20
-153.846
11
101.682
21
-153.84
0
LINE
8
BLACK
6
CONTINUOUS
10
101.682
20
-153.84
11
101.681
21
-153.839
0
LINE
8
BLACK
6
CONTINUOUS
10
101.681
20
-153.839
11
101.679
21
-153.837
0
LINE
8
BLACK
6
CONTINUOUS
10
101.679
20
-153.837
11
101.06
21
-153.199
0
LINE
8
BLACK
6
CONTINUOUS
10
101.06
20
-153.199
11
101.06
21
-153.199
0
LINE
8
BLACK
6
CONTINUOUS
10
101.06
20
-153.199
11
101.06
21
-153.199
0
LINE
8
BLACK
6
CONTINUOUS
10
101.06
20
-153.199
11
101.055
21
-153.192
0
LINE
8
BLACK
6
CONTINUOUS
10
101.055
20
-153.192
11
101.054
21
-153.19
0
LINE
8
BLACK
6
CONTINUOUS
10
101.054
20
-153.19
11
101.052
21
-153.188
0
LINE
8
BLACK
6
CONTINUOUS
10
101.052
20
-153.188
11
100.556
21
-152.451
0
LINE
8
BLACK
6
CONTINUOUS
10
100.556
20
-152.451
11
100.552
21
-152.443
0
LINE
8
BLACK
6
CONTINUOUS
10
100.552
20
-152.443
11
100.551
21
-152.441
0
LINE
8
BLACK
6
CONTINUOUS
10
100.551
20
-152.441
11
100.55
21
-152.439
0
LINE
8
BLACK
6
CONTINUOUS
10
100.55
20
-152.439
11
100.192
21
-151.625
0
LINE
8
BLACK
6
CONTINUOUS
10
100.192
20
-151.625
11
100.189
21
-151.617
0
LINE
8
BLACK
6
CONTINUOUS
10
100.189
20
-151.617
11
100.189
21
-151.615
0
LINE
8
BLACK
6
CONTINUOUS
10
100.189
20
-151.615
11
100.188
21
-151.612
0
LINE
8
BLACK
6
CONTINUOUS
10
100.188
20
-151.612
11
99.9807
21
-150.748
0
LINE
8
BLACK
6
CONTINUOUS
10
99.9807
20
-150.748
11
99.9792
21
-150.739
0
LINE
8
BLACK
6
CONTINUOUS
10
99.9792
20
-150.739
11
99.9791
21
-150.738
0
LINE
8
BLACK
6
CONTINUOUS
10
99.9791
20
-150.738
11
99.9788
21
-150.736
0
LINE
8
BLACK
6
CONTINUOUS
10
99.9788
20
-150.736
11
99.9253
21
-150.006
0
LINE
8
BLACK
6
CONTINUOUS
10
99.9253
20
-150.006
11
99.925
21
-150.004
0
LINE
8
BLACK
6
CONTINUOUS
10
99.925
20
-150.004
11
99.925
21
-59.9963
0
LINE
8
BLACK
6
CONTINUOUS
10
99.925
20
-59.9963
11
99.9253
21
-59.9932
0
LINE
8
BLACK
6
CONTINUOUS
10
99.9253
20
-59.9932
11
100.004
21
-59.1079
0
LINE
8
BLACK
6
CONTINUOUS
10
100.004
20
-59.1079
11
100.006
21
-59.0994
0
LINE
8
BLACK
6
CONTINUOUS
10
100.006
20
-59.0994
11
100.006
21
-59.0971
0
LINE
8
BLACK
6
CONTINUOUS
10
100.006
20
-59.0971
11
100.007
21
-59.0948
0
LINE
8
BLACK
6
CONTINUOUS
10
100.007
20
-59.0948
11
100.241
21
-58.2373
0
LINE
8
BLACK
6
CONTINUOUS
10
100.241
20
-58.2373
11
100.244
21
-58.2292
0
LINE
8
BLACK
6
CONTINUOUS
10
100.244
20
-58.2292
11
100.245
21
-58.2271
0
LINE
8
BLACK
6
CONTINUOUS
10
100.245
20
-58.2271
11
100.246
21
-58.2249
0
LINE
8
BLACK
6
CONTINUOUS
10
100.246
20
-58.2249
11
100.629
21
-57.4225
0
LINE
8
BLACK
6
CONTINUOUS
10
100.629
20
-57.4225
11
100.629
21
-57.4225
0
LINE
8
BLACK
6
CONTINUOUS
10
100.629
20
-57.4225
11
100.629
21
-57.4225
0
LINE
8
BLACK
6
CONTINUOUS
10
100.629
20
-57.4225
11
100.633
21
-57.4149
0
LINE
8
BLACK
6
CONTINUOUS
10
100.633
20
-57.4149
11
100.634
21
-57.4131
0
LINE
8
BLACK
6
CONTINUOUS
10
100.634
20
-57.4131
11
100.635
21
-57.411
0
LINE
8
BLACK
6
CONTINUOUS
10
100.635
20
-57.411
11
101.154
21
-56.6891
0
LINE
8
BLACK
6
CONTINUOUS
10
101.154
20
-56.6891
11
101.16
21
-56.6824
0
LINE
8
BLACK
6
CONTINUOUS
10
101.16
20
-56.6824
11
101.161
21
-56.6808
0
LINE
8
BLACK
6
CONTINUOUS
10
101.161
20
-56.6808
11
101.163
21
-56.679
0
LINE
8
BLACK
6
CONTINUOUS
10
101.163
20
-56.679
11
101.801
21
-56.0604
0
LINE
8
BLACK
6
CONTINUOUS
10
101.801
20
-56.0604
11
101.808
21
-56.0548
0
LINE
8
BLACK
6
CONTINUOUS
10
101.808
20
-56.0548
11
101.81
21
-56.0535
0
LINE
8
BLACK
6
CONTINUOUS
10
101.81
20
-56.0535
11
101.812
21
-56.052
0
LINE
8
BLACK
6
CONTINUOUS
10
101.812
20
-56.052
11
102.549
21
-55.5562
0
LINE
8
BLACK
6
CONTINUOUS
10
102.549
20
-55.5562
11
102.557
21
-55.5518
0
LINE
8
BLACK
6
CONTINUOUS
10
102.557
20
-55.5518
11
102.559
21
-55.5509
0
LINE
8
BLACK
6
CONTINUOUS
10
102.559
20
-55.5509
11
102.561
21
-55.5498
0
LINE
8
BLACK
6
CONTINUOUS
10
102.561
20
-55.5498
11
103.375
21
-55.1925
0
LINE
8
BLACK
6
CONTINUOUS
10
103.375
20
-55.1925
11
103.383
21
-55.1895
0
LINE
8
BLACK
6
CONTINUOUS
10
103.383
20
-55.1895
11
103.385
21
-55.189
0
LINE
8
BLACK
6
CONTINUOUS
10
103.385
20
-55.189
11
103.388
21
-55.1882
0
LINE
8
BLACK
6
CONTINUOUS
10
103.388
20
-55.1882
11
104.252
21
-54.9807
0
LINE
8
BLACK
6
CONTINUOUS
10
104.252
20
-54.9807
11
104.261
21
-54.9792
0
LINE
8
BLACK
6
CONTINUOUS
10
104.261
20
-54.9792
11
104.262
21
-54.9791
0
LINE
8
BLACK
6
CONTINUOUS
10
104.262
20
-54.9791
11
104.264
21
-54.9788
0
LINE
8
BLACK
6
CONTINUOUS
10
104.264
20
-54.9788
11
104.994
21
-54.9253
0
LINE
8
BLACK
6
CONTINUOUS
10
104.994
20
-54.9253
11
104.996
21
-54.925
0
LINE
8
BLACK
6
CONTINUOUS
10
104.996
20
-54.925
11
195.004
21
-54.925
0
LINE
8
BLACK
6
CONTINUOUS
10
195.004
20
-54.925
11
195.007
21
-54.9253
0
LINE
8
BLACK
6
CONTINUOUS
10
195.007
20
-54.9253
11
195.892
21
-55.0043
0
LINE
8
BLACK
6
CONTINUOUS
10
195.892
20
-55.0043
11
195.892
21
-55.0043
0
LINE
8
BLACK
6
CONTINUOUS
10
195.892
20
-55.0043
11
195.892
21
-55.0043
0
LINE
8
BLACK
6
CONTINUOUS
10
195.892
20
-55.0043
11
195.901
21
-55.0056
0
LINE
8
BLACK
6
CONTINUOUS
10
195.901
20
-55.0056
11
195.903
21
-55.0063
0
LINE
8
BLACK
6
CONTINUOUS
10
195.903
20
-55.0063
11
195.905
21
-55.0067
0
LINE
8
BLACK
6
CONTINUOUS
10
195.905
20
-55.0067
11
196.763
21
-55.2412
0
LINE
8
BLACK
6
CONTINUOUS
10
196.763
20
-55.2412
11
196.763
21
-55.2412
0
LINE
8
BLACK
6
CONTINUOUS
10
196.763
20
-55.2412
11
196.763
21
-55.2413
0
LINE
8
BLACK
6
CONTINUOUS
10
196.763
20
-55.2413
11
196.771
21
-55.244
0
LINE
8
BLACK
6
CONTINUOUS
10
196.771
20
-55.244
11
196.773
21
-55.2451
0
LINE
8
BLACK
6
CONTINUOUS
10
196.773
20
-55.2451
11
196.775
21
-55.2459
0
LINE
8
BLACK
6
CONTINUOUS
10
196.775
20
-55.2459
11
197.577
21
-55.6286
0
LINE
8
BLACK
6
CONTINUOUS
10
197.577
20
-55.6286
11
197.577
21
-55.6286
0
LINE
8
BLACK
6
CONTINUOUS
10
197.577
20
-55.6286
11
197.578
21
-55.6286
0
LINE
8
BLACK
6
CONTINUOUS
10
197.578
20
-55.6286
11
197.585
21
-55.6328
0
LINE
8
BLACK
6
CONTINUOUS
10
197.585
20
-55.6328
11
197.587
21
-55.6342
0
LINE
8
BLACK
6
CONTINUOUS
10
197.587
20
-55.6342
11
197.589
21
-55.6354
0
LINE
8
BLACK
6
CONTINUOUS
10
197.589
20
-55.6354
11
198.311
21
-56.1541
0
LINE
8
BLACK
6
CONTINUOUS
10
198.311
20
-56.1541
11
198.318
21
-56.1596
0
LINE
8
BLACK
6
CONTINUOUS
10
198.318
20
-56.1596
11
198.319
21
-56.1613
0
LINE
8
BLACK
6
CONTINUOUS
10
198.319
20
-56.1613
11
198.321
21
-56.1628
0
LINE
8
BLACK
6
CONTINUOUS
10
198.321
20
-56.1628
11
198.94
21
-56.8012
0
LINE
8
BLACK
6
CONTINUOUS
10
198.94
20
-56.8012
11
198.945
21
-56.8077
0
LINE
8
BLACK
6
CONTINUOUS
10
198.945
20
-56.8077
11
198.946
21
-56.8097
0
LINE
8
BLACK
6
CONTINUOUS
10
198.946
20
-56.8097
11
198.948
21
-56.8116
0
LINE
8
BLACK
6
CONTINUOUS
10
198.948
20
-56.8116
11
199.444
21
-57.5494
0
LINE
8
BLACK
6
CONTINUOUS
10
199.444
20
-57.5494
11
199.448
21
-57.5568
0
LINE
8
BLACK
6
CONTINUOUS
10
199.448
20
-57.5568
11
199.449
21
-57.559
0
LINE
8
BLACK
6
CONTINUOUS
10
199.449
20
-57.559
11
199.45
21
-57.5611
0
LINE
8
BLACK
6
CONTINUOUS
10
199.45
20
-57.5611
11
199.808
21
-58.3751
0
LINE
8
BLACK
6
CONTINUOUS
10
199.808
20
-58.3751
11
199.811
21
-58.3831
0
LINE
8
BLACK
6
CONTINUOUS
10
199.811
20
-58.3831
11
199.811
21
-58.3855
0
LINE
8
BLACK
6
CONTINUOUS
10
199.811
20
-58.3855
11
199.812
21
-58.3877
0
LINE
8
BLACK
6
CONTINUOUS
10
199.812
20
-58.3877
11
200.019
21
-59.2521
0
LINE
8
BLACK
6
CONTINUOUS
10
200.019
20
-59.2521
11
200.021
21
-59.2606
0
LINE
8
BLACK
6
CONTINUOUS
10
200.021
20
-59.2606
11
200.021
21
-59.2623
0
LINE
8
BLACK
6
CONTINUOUS
10
200.021
20
-59.2623
11
200.021
21
-59.2641
0
LINE
8
BLACK
6
CONTINUOUS
10
200.021
20
-59.2641
11
200.075
21
-59.9936
0
LINE
8
BLACK
6
CONTINUOUS
10
200.075
20
-59.9936
11
200.075
21
-59.9963
0
LINE
8
BLACK
6
CONTINUOUS
10
200.075
20
-59.9963
11
200.075
21
-150.004
0
LINE
8
BLACK
6
CONTINUOUS
10
200.075
20
-150.004
11
200.075
21
-150.007
0
LINE
8
BLACK
6
CONTINUOUS
10
200.075
20
-150.007
11
199.996
21
-150.892
0
LINE
8
BLACK
6
CONTINUOUS
10
199.996
20
-150.892
11
199.994
21
-150.901
0
LINE
8
BLACK
6
CONTINUOUS
10
199.994
20
-150.901
11
199.994
21
-150.903
0
LINE
8
BLACK
6
CONTINUOUS
10
199.994
20
-150.903
11
199.993
21
-150.905
0
LINE
8
BLACK
6
CONTINUOUS
10
199.993
20
-150.905
11
199.759
21
-151.763
0
LINE
8
BLACK
6
CONTINUOUS
10
199.759
20
-151.763
11
199.756
21
-151.771
0
LINE
8
BLACK
6
CONTINUOUS
10
199.756
20
-151.771
11
199.755
21
-151.773
0
LINE
8
BLACK
6
CONTINUOUS
10
199.755
20
-151.773
11
199.754
21
-151.775
0
LINE
8
BLACK
6
CONTINUOUS
10
199.754
20
-151.775
11
199.371
21
-152.577
0
LINE
8
BLACK
6
CONTINUOUS
10
199.371
20
-152.577
11
199.371
21
-152.577
0
LINE
8
BLACK
6
CONTINUOUS
10
199.371
20
-152.577
11
199.371
21
-152.578
0
LINE
8
BLACK
6
CONTINUOUS
10
199.371
20
-152.578
11
199.367
21
-152.585
0
LINE
8
BLACK
6
CONTINUOUS
10
199.367
20
-152.585
11
199.366
21
-152.587
0
LINE
8
BLACK
6
CONTINUOUS
10
199.366
20
-152.587
11
199.365
21
-152.589
0
LINE
8
BLACK
6
CONTINUOUS
10
199.365
20
-152.589
11
198.846
21
-153.311
0
LINE
8
BLACK
6
CONTINUOUS
10
198.846
20
-153.311
11
198.84
21
-153.318
0
LINE
8
BLACK
6
CONTINUOUS
10
198.84
20
-153.318
11
198.839
21
-153.319
0
LINE
8
BLACK
6
CONTINUOUS
10
198.839
20
-153.319
11
198.837
21
-153.321
0
LINE
8
BLACK
6
CONTINUOUS
10
198.837
20
-153.321
11
198.199
21
-153.94
0
LINE
8
BLACK
6
CONTINUOUS
10
198.199
20
-153.94
11
198.199
21
-153.94
0
LINE
8
BLACK
6
CONTINUOUS
10
198.199
20
-153.94
11
198.199
21
-153.94
0
LINE
8
BLACK
6
CONTINUOUS
10
198.199
20
-153.94
11
198.192
21
-153.945
0
LINE
8
BLACK
6
CONTINUOUS
10
198.192
20
-153.945
11
198.19
21
-153.946
0
LINE
8
BLACK
6
CONTINUOUS
10
198.19
20
-153.946
11
198.188
21
-153.948
0
LINE
8
BLACK
6
CONTINUOUS
10
198.188
20
-153.948
11
197.451
21
-154.444
0
LINE
8
BLACK
6
CONTINUOUS
10
197.451
20
-154.444
11
197.443
21
-154.448
0
LINE
8
BLACK
6
CONTINUOUS
10
197.443
20
-154.448
11
197.441
21
-154.449
0
LINE
8
BLACK
6
CONTINUOUS
10
197.441
20
-154.449
11
197.439
21
-154.45
0
LINE
8
BLACK
6
CONTINUOUS
10
197.439
20
-154.45
11
196.625
21
-154.808
0
LINE
8
BLACK
6
CONTINUOUS
10
196.625
20
-154.808
11
196.617
21
-154.811
0
LINE
8
BLACK
6
CONTINUOUS
10
196.617
20
-154.811
11
196.615
21
-154.811
0
LINE
8
BLACK
6
CONTINUOUS
10
196.615
20
-154.811
11
196.612
21
-154.812
0
LINE
8
BLACK
6
CONTINUOUS
10
196.612
20
-154.812
11
195.748
21
-155.019
0
LINE
8
BLACK
6
CONTINUOUS
10
195.748
20
-155.019
11
195.739
21
-155.021
0
LINE
8
BLACK
6
CONTINUOUS
10
195.739
20
-155.021
11
195.738
21
-155.021
0
LINE
8
BLACK
6
CONTINUOUS
10
195.738
20
-155.021
11
195.736
21
-155.021
0
LINE
8
BLACK
6
CONTINUOUS
10
195.736
20
-155.021
11
195.006
21
-155.075
0
LINE
8
BLACK
6
CONTINUOUS
10
195.006
20
-155.075
11
195.004
21
-155.075
0
LINE
8
BLACK
6
CONTINUOUS
10
195.004
20
-155.075
11
104.996
21
-155.075
0
LINE
8
BLACK
6
CONTINUOUS
10
104.996
20
-155.075
11
104.993
21
-155.075
0
LINE
8
BLACK
6
CONTINUOUS
10
104.993
20
-155.075
11
104.108
21
-154.996
0
LINE
8
BLACK
6
CONTINUOUS
10
104.108
20
-154.996
11
104.108
21
-154.996
0
LINE
8
BLACK
6
CONTINUOUS
10
104.108
20
-154.996
11
104.108
21
-154.996
0
LINE
8
BLACK
6
CONTINUOUS
10
105.003
20
-55.075
11
104.281
21
-55.128
0
LINE
8
BLACK
6
CONTINUOUS
10
104.281
20
-55.128
11
103.429
21
-55.3325
0
LINE
8
BLACK
6
CONTINUOUS
10
103.429
20
-55.3325
11
102.628
21
-55.6845
0
LINE
8
BLACK
6
CONTINUOUS
10
102.628
20
-55.6845
11
101.901
21
-56.1728
0
LINE
8
BLACK
6
CONTINUOUS
10
101.901
20
-56.1728
11
101.272
21
-56.7821
0
LINE
8
BLACK
6
CONTINUOUS
10
101.272
20
-56.7821
11
100.761
21
-57.4931
0
LINE
8
BLACK
6
CONTINUOUS
10
100.761
20
-57.4931
11
100.384
21
-58.2834
0
LINE
8
BLACK
6
CONTINUOUS
10
100.384
20
-58.2834
11
100.153
21
-59.1279
0
LINE
8
BLACK
6
CONTINUOUS
10
100.153
20
-59.1279
11
100.075
21
-60.0033
0
LINE
8
BLACK
6
CONTINUOUS
10
100.075
20
-60.0033
11
100.075
21
-149.997
0
LINE
8
BLACK
6
CONTINUOUS
10
100.075
20
-149.997
11
100.128
21
-150.719
0
LINE
8
BLACK
6
CONTINUOUS
10
100.128
20
-150.719
11
100.333
21
-151.571
0
LINE
8
BLACK
6
CONTINUOUS
10
100.333
20
-151.571
11
100.684
21
-152.372
0
LINE
8
BLACK
6
CONTINUOUS
10
100.684
20
-152.372
11
101.173
21
-153.099
0
LINE
8
BLACK
6
CONTINUOUS
10
101.173
20
-153.099
11
101.782
21
-153.728
0
LINE
8
BLACK
6
CONTINUOUS
10
101.782
20
-153.728
11
102.493
21
-154.239
0
LINE
8
BLACK
6
CONTINUOUS
10
102.493
20
-154.239
11
103.283
21
-154.616
0
LINE
8
BLACK
6
CONTINUOUS
10
103.283
20
-154.616
11
104.128
21
-154.847
0
LINE
8
BLACK
6
CONTINUOUS
10
104.128
20
-154.847
11
105.003
21
-154.925
0
LINE
8
BLACK
6
CONTINUOUS
10
105.003
20
-154.925
11
194.997
21
-154.925
0
LINE
8
BLACK
6
CONTINUOUS
10
194.997
20
-154.925
11
195.719
21
-154.872
0
LINE
8
BLACK
6
CONTINUOUS
10
195.719
20
-154.872
11
196.571
21
-154.667
0
LINE
8
BLACK
6
CONTINUOUS
10
196.571
20
-154.667
11
197.372
21
-154.316
0
LINE
8
BLACK
6
CONTINUOUS
10
197.372
20
-154.316
11
198.099
21
-153.827
0
LINE
8
BLACK
6
CONTINUOUS
10
198.099
20
-153.827
11
198.728
21
-153.218
0
LINE
8
BLACK
6
CONTINUOUS
10
198.728
20
-153.218
11
199.239
21
-152.507
0
LINE
8
BLACK
6
CONTINUOUS
10
199.239
20
-152.507
11
199.616
21
-151.717
0
LINE
8
BLACK
6
CONTINUOUS
10
199.616
20
-151.717
11
199.847
21
-150.872
0
LINE
8
BLACK
6
CONTINUOUS
10
199.847
20
-150.872
11
199.925
21
-149.997
0
LINE
8
BLACK
6
CONTINUOUS
10
199.925
20
-149.997
11
199.925
21
-60.0028
0
LINE
8
BLACK
6
CONTINUOUS
10
199.925
20
-60.0028
11
199.872
21
-59.2812
0
LINE
8
BLACK
6
CONTINUOUS
10
199.872
20
-59.2812
11
199.667
21
-58.4292
0
LINE
8
BLACK
6
CONTINUOUS
10
199.667
20
-58.4292
11
199.316
21
-57.6275
0
LINE
8
BLACK
6
CONTINUOUS
10
199.316
20
-57.6275
11
198.827
21
-56.9008
0
LINE
8
BLACK
6
CONTINUOUS
10
198.827
20
-56.9008
11
198.218
21
-56.272
0
LINE
8
BLACK
6
CONTINUOUS
10
198.218
20
-56.272
11
197.507
21
-55.7611
0
LINE
8
BLACK
6
CONTINUOUS
10
197.507
20
-55.7611
11
196.717
21
-55.3842
0
LINE
8
BLACK
6
CONTINUOUS
10
196.717
20
-55.3842
11
195.872
21
-55.1531
0
LINE
8
BLACK
6
CONTINUOUS
10
195.872
20
-55.1531
11
194.997
21
-55.075
0
LINE
8
BLACK
6
CONTINUOUS
10
194.997
20
-55.075
11
105.003
21
-55.075
0
LINE
8
BLACK
6
CONTINUOUS
10
193.426
20
-149.522
11
193.549
21
-149.225
0
LINE
8
BLACK
6
CONTINUOUS
10
193.549
20
-149.225
11
193.728
21
-148.956
0
LINE
8
BLACK
6
CONTINUOUS
10
193.728
20
-148.956
11
193.956
21
-148.728
0
LINE
8
BLACK
6
CONTINUOUS
10
193.956
20
-148.728
11
194.225
21
-148.549
0
LINE
8
BLACK
6
CONTINUOUS
10
194.225
20
-148.549
11
194.522
21
-148.426
0
LINE
8
BLACK
6
CONTINUOUS
10
194.522
20
-148.426
11
194.839
21
-148.363
0
LINE
8
BLACK
6
CONTINUOUS
10
194.839
20
-148.363
11
195.161
21
-148.363
0
LINE
8
BLACK
6
CONTINUOUS
10
195.161
20
-148.363
11
195.478
21
-148.426
0
LINE
8
BLACK
6
CONTINUOUS
10
195.478
20
-148.426
11
195.775
21
-148.549
0
LINE
8
BLACK
6
CONTINUOUS
10
195.775
20
-148.549
11
196.044
21
-148.728
0
LINE
8
BLACK
6
CONTINUOUS
10
196.044
20
-148.728
11
196.272
21
-148.956
0
LINE
8
BLACK
6
CONTINUOUS
10
196.272
20
-148.956
11
196.451
21
-149.225
0
LINE
8
BLACK
6
CONTINUOUS
10
196.451
20
-149.225
11
196.574
21
-149.522
0
LINE
8
BLACK
6
CONTINUOUS
10
196.574
20
-149.522
11
196.637
21
-149.839
0
LINE
8
BLACK
6
CONTINUOUS
10
196.637
20
-149.839
11
196.637
21
-150.161
0
LINE
8
BLACK
6
CONTINUOUS
10
196.637
20
-150.161
11
196.574
21
-150.478
0
LINE
8
BLACK
6
CONTINUOUS
10
196.574
20
-150.478
11
196.451
21
-150.775
0
LINE
8
BLACK
6
CONTINUOUS
10
196.451
20
-150.775
11
196.272
21
-151.044
0
LINE
8
BLACK
6
CONTINUOUS
10
196.272
20
-151.044
11
196.044
21
-151.272
0
LINE
8
BLACK
6
CONTINUOUS
10
196.044
20
-151.272
11
195.775
21
-151.451
0
LINE
8
BLACK
6
CONTINUOUS
10
195.775
20
-151.451
11
195.478
21
-151.574
0
LINE
8
BLACK
6
CONTINUOUS
10
195.478
20
-151.574
11
195.161
21
-151.637
0
LINE
8
BLACK
6
CONTINUOUS
10
195.161
20
-151.637
11
194.839
21
-151.637
0
LINE
8
BLACK
6
CONTINUOUS
10
194.839
20
-151.637
11
194.522
21
-151.574
0
LINE
8
BLACK
6
CONTINUOUS
10
194.522
20
-151.574
11
194.225
21
-151.451
0
LINE
8
BLACK
6
CONTINUOUS
10
194.225
20
-151.451
11
193.956
21
-151.272
0
LINE
8
BLACK
6
CONTINUOUS
10
193.956
20
-151.272
11
193.728
21
-151.044
0
LINE
8
BLACK
6
CONTINUOUS
10
193.728
20
-151.044
11
193.549
21
-150.775
0
LINE
8
BLACK
6
CONTINUOUS
10
193.549
20
-150.775
11
193.426
21
-150.478
0
LINE
8
BLACK
6
CONTINUOUS
10
193.426
20
-150.478
11
193.363
21
-150.161
0
LINE
8
BLACK
6
CONTINUOUS
10
193.363
20
-150.161
11
193.363
21
-149.839
0
LINE
8
BLACK
6
CONTINUOUS
10
193.363
20
-149.839
11
193.426
21
-149.522
0
LINE
8
BLACK
6
CONTINUOUS
10
193.493
20
-150.457
11
193.611
21
-150.742
0
LINE
8
BLACK
6
CONTINUOUS
10
193.611
20
-150.742
11
193.783
21
-150.999
0
LINE
8
BLACK
6
CONTINUOUS
10
193.783
20
-150.999
11
194.001
21
-151.217
0
LINE
8
BLACK
6
CONTINUOUS
10
194.001
20
-151.217
11
194.258
21
-151.389
0
LINE
8
BLACK
6
CONTINUOUS
10
194.258
20
-151.389
11
194.543
21
-151.507
0
LINE
8
BLACK
6
CONTINUOUS
10
194.543
20
-151.507
11
194.846
21
-151.567
0
LINE
8
BLACK
6
CONTINUOUS
10
194.846
20
-151.567
11
195.154
21
-151.567
0
LINE
8
BLACK
6
CONTINUOUS
10
195.154
20
-151.567
11
195.457
21
-151.507
0
LINE
8
BLACK
6
CONTINUOUS
10
195.457
20
-151.507
11
195.742
21
-151.389
0
LINE
8
BLACK
6
CONTINUOUS
10
195.742
20
-151.389
11
195.999
21
-151.217
0
LINE
8
BLACK
6
CONTINUOUS
10
195.999
20
-151.217
11
196.217
21
-150.999
0
LINE
8
BLACK
6
CONTINUOUS
10
196.217
20
-150.999
11
196.389
21
-150.742
0
LINE
8
BLACK
6
CONTINUOUS
10
196.389
20
-150.742
11
196.507
21
-150.457
0
LINE
8
BLACK
6
CONTINUOUS
10
196.507
20
-150.457
11
196.567
21
-150.154
0
LINE
8
BLACK
6
CONTINUOUS
10
196.567
20
-150.154
11
196.567
21
-149.846
0
LINE
8
BLACK
6
CONTINUOUS
10
196.567
20
-149.846
11
196.507
21
-149.543
0
LINE
8
BLACK
6
CONTINUOUS
10
196.507
20
-149.543
11
196.389
21
-149.258
0
LINE
8
BLACK
6
CONTINUOUS
10
196.389
20
-149.258
11
196.217
21
-149.001
0
LINE
8
BLACK
6
CONTINUOUS
10
196.217
20
-149.001
11
195.999
21
-148.783
0
LINE
8
BLACK
6
CONTINUOUS
10
195.999
20
-148.783
11
195.742
21
-148.611
0
LINE
8
BLACK
6
CONTINUOUS
10
195.742
20
-148.611
11
195.457
21
-148.493
0
LINE
8
BLACK
6
CONTINUOUS
10
195.457
20
-148.493
11
195.154
21
-148.433
0
LINE
8
BLACK
6
CONTINUOUS
10
195.154
20
-148.433
11
194.846
21
-148.433
0
LINE
8
BLACK
6
CONTINUOUS
10
194.846
20
-148.433
11
194.543
21
-148.493
0
LINE
8
BLACK
6
CONTINUOUS
10
194.543
20
-148.493
11
194.258
21
-148.611
0
LINE
8
BLACK
6
CONTINUOUS
10
194.258
20
-148.611
11
194.001
21
-148.783
0
LINE
8
BLACK
6
CONTINUOUS
10
194.001
20
-148.783
11
193.783
21
-149.001
0
LINE
8
BLACK
6
CONTINUOUS
10
193.783
20
-149.001
11
193.611
21
-149.258
0
LINE
8
BLACK
6
CONTINUOUS
10
193.611
20
-149.258
11
193.493
21
-149.543
0
LINE
8
BLACK
6
CONTINUOUS
10
193.493
20
-149.543
11
193.433
21
-149.846
0
LINE
8
BLACK
6
CONTINUOUS
10
193.433
20
-149.846
11
193.433
21
-150.154
0
LINE
8
BLACK
6
CONTINUOUS
10
193.433
20
-150.154
11
193.493
21
-150.457
0
LINE
8
BLACK
6
CONTINUOUS
10
103.426
20
-149.522
11
103.549
21
-149.225
0
LINE
8
BLACK
6
CONTINUOUS
10
103.549
20
-149.225
11
103.728
21
-148.956
0
LINE
8
BLACK
6
CONTINUOUS
10
103.728
20
-148.956
11
103.956
21
-148.728
0
LINE
8
BLACK
6
CONTINUOUS
10
103.956
20
-148.728
11
104.225
21
-148.549
0
LINE
8
BLACK
6
CONTINUOUS
10
104.225
20
-148.549
11
104.522
21
-148.426
0
LINE
8
BLACK
6
CONTINUOUS
10
104.522
20
-148.426
11
104.839
21
-148.363
0
LINE
8
BLACK
6
CONTINUOUS
10
104.839
20
-148.363
11
105.161
21
-148.363
0
LINE
8
BLACK
6
CONTINUOUS
10
105.161
20
-148.363
11
105.478
21
-148.426
0
LINE
8
BLACK
6
CONTINUOUS
10
105.478
20
-148.426
11
105.775
21
-148.549
0
LINE
8
BLACK
6
CONTINUOUS
10
105.775
20
-148.549
11
106.044
21
-148.728
0
LINE
8
BLACK
6
CONTINUOUS
10
106.044
20
-148.728
11
106.272
21
-148.956
0
LINE
8
BLACK
6
CONTINUOUS
10
106.272
20
-148.956
11
106.451
21
-149.225
0
LINE
8
BLACK
6
CONTINUOUS
10
106.451
20
-149.225
11
106.574
21
-149.522
0
LINE
8
BLACK
6
CONTINUOUS
10
106.574
20
-149.522
11
106.637
21
-149.839
0
LINE
8
BLACK
6
CONTINUOUS
10
106.637
20
-149.839
11
106.637
21
-150.161
0
LINE
8
BLACK
6
CONTINUOUS
10
106.637
20
-150.161
11
106.574
21
-150.478
0
LINE
8
BLACK
6
CONTINUOUS
10
106.574
20
-150.478
11
106.451
21
-150.775
0
LINE
8
BLACK
6
CONTINUOUS
10
106.451
20
-150.775
11
106.272
21
-151.044
0
LINE
8
BLACK
6
CONTINUOUS
10
106.272
20
-151.044
11
106.044
21
-151.272
0
LINE
8
BLACK
6
CONTINUOUS
10
106.044
20
-151.272
11
105.775
21
-151.451
0
LINE
8
BLACK
6
CONTINUOUS
10
105.775
20
-151.451
11
105.478
21
-151.574
0
LINE
8
BLACK
6
CONTINUOUS
10
105.478
20
-151.574
11
105.161
21
-151.637
0
LINE
8
BLACK
6
CONTINUOUS
10
105.161
20
-151.637
11
104.839
21
-151.637
0
LINE
8
BLACK
6
CONTINUOUS
10
104.839
20
-151.637
11
104.522
21
-151.574
0
LINE
8
BLACK
6
CONTINUOUS
10
104.522
20
-151.574
11
104.225
21
-151.451
0
LINE
8
BLACK
6
CONTINUOUS
10
104.225
20
-151.451
11
103.956
21
-151.272
0
LINE
8
BLACK
6
CONTINUOUS
10
103.956
20
-151.272
11
103.728
21
-151.044
0
LINE
8
BLACK
6
CONTINUOUS
10
103.728
20
-151.044
11
103.549
21
-150.775
0
LINE
8
BLACK
6
CONTINUOUS
10
103.549
20
-150.775
11
103.426
21
-150.478
0
LINE
8
BLACK
6
CONTINUOUS
10
103.426
20
-150.478
11
103.363
21
-150.161
0
LINE
8
BLACK
6
CONTINUOUS
10
103.363
20
-150.161
11
103.363
21
-149.839
0
LINE
8
BLACK
6
CONTINUOUS
10
103.363
20
-149.839
11
103.426
21
-149.522
0
LINE
8
BLACK
6
CONTINUOUS
10
103.493
20
-150.457
11
103.611
21
-150.742
0
LINE
8
BLACK
6
CONTINUOUS
10
103.611
20
-150.742
11
103.783
21
-150.999
0
LINE
8
BLACK
6
CONTINUOUS
10
103.783
20
-150.999
11
104.001
21
-151.217
0
LINE
8
BLACK
6
CONTINUOUS
10
104.001
20
-151.217
11
104.258
21
-151.389
0
LINE
8
BLACK
6
CONTINUOUS
10
104.258
20
-151.389
11
104.543
21
-151.507
0
LINE
8
BLACK
6
CONTINUOUS
10
104.543
20
-151.507
11
104.846
21
-151.567
0
LINE
8
BLACK
6
CONTINUOUS
10
104.846
20
-151.567
11
105.154
21
-151.567
0
LINE
8
BLACK
6
CONTINUOUS
10
105.154
20
-151.567
11
105.457
21
-151.507
0
LINE
8
BLACK
6
CONTINUOUS
10
105.457
20
-151.507
11
105.742
21
-151.389
0
LINE
8
BLACK
6
CONTINUOUS
10
105.742
20
-151.389
11
105.999
21
-151.217
0
LINE
8
BLACK
6
CONTINUOUS
10
105.999
20
-151.217
11
106.217
21
-150.999
0
LINE
8
BLACK
6
CONTINUOUS
10
106.217
20
-150.999
11
106.389
21
-150.742
0
LINE
8
BLACK
6
CONTINUOUS
10
106.389
20
-150.742
11
106.507
21
-150.457
0
LINE
8
BLACK
6
CONTINUOUS
10
106.507
20
-150.457
11
106.567
21
-150.154
0
LINE
8
BLACK
6
CONTINUOUS
10
106.567
20
-150.154
11
106.567
21
-149.846
0
LINE
8
BLACK
6
CONTINUOUS
10
106.567
20
-149.846
11
106.507
21
-149.543
0
LINE
8
BLACK
6
CONTINUOUS
10
106.507
20
-149.543
11
106.389
21
-149.258
0
LINE
8
BLACK
6
CONTINUOUS
10
106.389
20
-149.258
11
106.217
21
-149.001
0
LINE
8
BLACK
6
CONTINUOUS
10
106.217
20
-149.001
11
105.999
21
-148.783
0
LINE
8
BLACK
6
CONTINUOUS
10
105.999
20
-148.783
11
105.742
21
-148.611
0
LINE
8
BLACK
6
CONTINUOUS
10
105.742
20
-148.611
11
105.457
21
-148.493
0
LINE
8
BLACK
6
CONTINUOUS
10
105.457
20
-148.493
11
105.154
21
-148.433
0
LINE
8
BLACK
6
CONTINUOUS
10
105.154
20
-148.433
11
104.846
21
-148.433
0
LINE
8
BLACK
6
CONTINUOUS
10
104.846
20
-148.433
11
104.543
21
-148.493
0
LINE
8
BLACK
6
CONTINUOUS
10
104.543
20
-148.493
11
104.258
21
-148.611
0
LINE
8
BLACK
6
CONTINUOUS
10
104.258
20
-148.611
11
104.001
21
-148.783
0
LINE
8
BLACK
6
CONTINUOUS
10
104.001
20
-148.783
11
103.783
21
-149.001
0
LINE
8
BLACK
6
CONTINUOUS
10
103.783
20
-149.001
11
103.611
21
-149.258
0
LINE
8
BLACK
6
CONTINUOUS
10
103.611
20
-149.258
11
103.493
21
-149.543
0
LINE
8
BLACK
6
CONTINUOUS
10
103.493
20
-149.543
11
103.433
21
-149.846
0
LINE
8
BLACK
6
CONTINUOUS
10
103.433
20
-149.846
11
103.433
21
-150.154
0
LINE
8
BLACK
6
CONTINUOUS
10
103.433
20
-150.154
11
103.493
21
-150.457
0
LINE
8
BLACK
6
CONTINUOUS
10
103.426
20
-59.5225
11
103.549
21
-59.2246
0
LINE
8
BLACK
6
CONTINUOUS
10
103.549
20
-59.2246
11
103.728
21
-58.9564
0
LINE
8
BLACK
6
CONTINUOUS
10
103.728
20
-58.9564
11
103.956
21
-58.7284
0
LINE
8
BLACK
6
CONTINUOUS
10
103.956
20
-58.7284
11
104.225
21
-58.5492
0
LINE
8
BLACK
6
CONTINUOUS
10
104.225
20
-58.5492
11
104.522
21
-58.4258
0
LINE
8
BLACK
6
CONTINUOUS
10
104.522
20
-58.4258
11
104.839
21
-58.3629
0
LINE
8
BLACK
6
CONTINUOUS
10
104.839
20
-58.3629
11
105.161
21
-58.3629
0
LINE
8
BLACK
6
CONTINUOUS
10
105.161
20
-58.3629
11
105.478
21
-58.4258
0
LINE
8
BLACK
6
CONTINUOUS
10
105.478
20
-58.4258
11
105.775
21
-58.5492
0
LINE
8
BLACK
6
CONTINUOUS
10
105.775
20
-58.5492
11
106.044
21
-58.7284
0
LINE
8
BLACK
6
CONTINUOUS
10
106.044
20
-58.7284
11
106.272
21
-58.9564
0
LINE
8
BLACK
6
CONTINUOUS
10
106.272
20
-58.9564
11
106.451
21
-59.2246
0
LINE
8
BLACK
6
CONTINUOUS
10
106.451
20
-59.2246
11
106.574
21
-59.5225
0
LINE
8
BLACK
6
CONTINUOUS
10
106.574
20
-59.5225
11
106.637
21
-59.8388
0
LINE
8
BLACK
6
CONTINUOUS
10
106.637
20
-59.8388
11
106.637
21
-60.1612
0
LINE
8
BLACK
6
CONTINUOUS
10
106.637
20
-60.1612
11
106.574
21
-60.4775
0
LINE
8
BLACK
6
CONTINUOUS
10
106.574
20
-60.4775
11
106.451
21
-60.7754
0
LINE
8
BLACK
6
CONTINUOUS
10
106.451
20
-60.7754
11
106.272
21
-61.0436
0
LINE
8
BLACK
6
CONTINUOUS
10
106.272
20
-61.0436
11
106.044
21
-61.2716
0
LINE
8
BLACK
6
CONTINUOUS
10
106.044
20
-61.2716
11
105.775
21
-61.4508
0
LINE
8
BLACK
6
CONTINUOUS
10
105.775
20
-61.4508
11
105.478
21
-61.5742
0
LINE
8
BLACK
6
CONTINUOUS
10
105.478
20
-61.5742
11
105.161
21
-61.6371
0
LINE
8
BLACK
6
CONTINUOUS
10
105.161
20
-61.6371
11
104.839
21
-61.6371
0
LINE
8
BLACK
6
CONTINUOUS
10
104.839
20
-61.6371
11
104.522
21
-61.5742
0
LINE
8
BLACK
6
CONTINUOUS
10
104.522
20
-61.5742
11
104.225
21
-61.4508
0
LINE
8
BLACK
6
CONTINUOUS
10
104.225
20
-61.4508
11
103.956
21
-61.2716
0
LINE
8
BLACK
6
CONTINUOUS
10
103.956
20
-61.2716
11
103.728
21
-61.0436
0
LINE
8
BLACK
6
CONTINUOUS
10
103.728
20
-61.0436
11
103.549
21
-60.7754
0
LINE
8
BLACK
6
CONTINUOUS
10
103.549
20
-60.7754
11
103.426
21
-60.4775
0
LINE
8
BLACK
6
CONTINUOUS
10
103.426
20
-60.4775
11
103.363
21
-60.1612
0
LINE
8
BLACK
6
CONTINUOUS
10
103.363
20
-60.1612
11
103.363
21
-59.8388
0
LINE
8
BLACK
6
CONTINUOUS
10
103.363
20
-59.8388
11
103.426
21
-59.5225
0
LINE
8
BLACK
6
CONTINUOUS
10
103.493
20
-60.4572
11
103.611
21
-60.7424
0
LINE
8
BLACK
6
CONTINUOUS
10
103.611
20
-60.7424
11
103.783
21
-60.9992
0
LINE
8
BLACK
6
CONTINUOUS
10
103.783
20
-60.9992
11
104.001
21
-61.2175
0
LINE
8
BLACK
6
CONTINUOUS
10
104.001
20
-61.2175
11
104.258
21
-61.389
0
LINE
8
BLACK
6
CONTINUOUS
10
104.258
20
-61.389
11
104.543
21
-61.5072
0
LINE
8
BLACK
6
CONTINUOUS
10
104.543
20
-61.5072
11
104.846
21
-61.5674
0
LINE
8
BLACK
6
CONTINUOUS
10
104.846
20
-61.5674
11
105.154
21
-61.5674
0
LINE
8
BLACK
6
CONTINUOUS
10
105.154
20
-61.5674
11
105.457
21
-61.5072
0
LINE
8
BLACK
6
CONTINUOUS
10
105.457
20
-61.5072
11
105.742
21
-61.389
0
LINE
8
BLACK
6
CONTINUOUS
10
105.742
20
-61.389
11
105.999
21
-61.2175
0
LINE
8
BLACK
6
CONTINUOUS
10
105.999
20
-61.2175
11
106.217
21
-60.9992
0
LINE
8
BLACK
6
CONTINUOUS
10
106.217
20
-60.9992
11
106.389
21
-60.7424
0
LINE
8
BLACK
6
CONTINUOUS
10
106.389
20
-60.7424
11
106.507
21
-60.4572
0
LINE
8
BLACK
6
CONTINUOUS
10
106.507
20
-60.4572
11
106.567
21
-60.1544
0
LINE
8
BLACK
6
CONTINUOUS
10
106.567
20
-60.1544
11
106.567
21
-59.8456
0
LINE
8
BLACK
6
CONTINUOUS
10
106.567
20
-59.8456
11
106.507
21
-59.5428
0
LINE
8
BLACK
6
CONTINUOUS
10
106.507
20
-59.5428
11
106.389
21
-59.2575
0
LINE
8
BLACK
6
CONTINUOUS
10
106.389
20
-59.2575
11
106.217
21
-59.0008
0
LINE
8
BLACK
6
CONTINUOUS
10
106.217
20
-59.0008
11
105.999
21
-58.7825
0
LINE
8
BLACK
6
CONTINUOUS
10
105.999
20
-58.7825
11
105.742
21
-58.611
0
LINE
8
BLACK
6
CONTINUOUS
10
105.742
20
-58.611
11
105.457
21
-58.4928
0
LINE
8
BLACK
6
CONTINUOUS
10
105.457
20
-58.4928
11
105.154
21
-58.4326
0
LINE
8
BLACK
6
CONTINUOUS
10
105.154
20
-58.4326
11
104.846
21
-58.4326
0
LINE
8
BLACK
6
CONTINUOUS
10
104.846
20
-58.4326
11
104.543
21
-58.4928
0
LINE
8
BLACK
6
CONTINUOUS
10
104.543
20
-58.4928
11
104.258
21
-58.611
0
LINE
8
BLACK
6
CONTINUOUS
10
104.258
20
-58.611
11
104.001
21
-58.7825
0
LINE
8
BLACK
6
CONTINUOUS
10
104.001
20
-58.7825
11
103.783
21
-59.0008
0
LINE
8
BLACK
6
CONTINUOUS
10
103.783
20
-59.0008
11
103.611
21
-59.2575
0
LINE
8
BLACK
6
CONTINUOUS
10
103.611
20
-59.2575
11
103.493
21
-59.5428
0
LINE
8
BLACK
6
CONTINUOUS
10
103.493
20
-59.5428
11
103.433
21
-59.8456
0
LINE
8
BLACK
6
CONTINUOUS
10
103.433
20
-59.8456
11
103.433
21
-60.1544
0
LINE
8
BLACK
6
CONTINUOUS
10
103.433
20
-60.1544
11
103.493
21
-60.4572
0
LINE
8
BLACK
6
CONTINUOUS
10
193.426
20
-59.5225
11
193.549
21
-59.2246
0
LINE
8
BLACK
6
CONTINUOUS
10
193.549
20
-59.2246
11
193.728
21
-58.9564
0
LINE
8
BLACK
6
CONTINUOUS
10
193.728
20
-58.9564
11
193.956
21
-58.7284
0
LINE
8
BLACK
6
CONTINUOUS
10
193.956
20
-58.7284
11
194.225
21
-58.5492
0
LINE
8
BLACK
6
CONTINUOUS
10
194.225
20
-58.5492
11
194.522
21
-58.4258
0
LINE
8
BLACK
6
CONTINUOUS
10
194.522
20
-58.4258
11
194.839
21
-58.3629
0
LINE
8
BLACK
6
CONTINUOUS
10
194.839
20
-58.3629
11
195.161
21
-58.3629
0
LINE
8
BLACK
6
CONTINUOUS
10
195.161
20
-58.3629
11
195.478
21
-58.4258
0
LINE
8
BLACK
6
CONTINUOUS
10
195.478
20
-58.4258
11
195.775
21
-58.5492
0
LINE
8
BLACK
6
CONTINUOUS
10
195.775
20
-58.5492
11
196.044
21
-58.7284
0
LINE
8
BLACK
6
CONTINUOUS
10
196.044
20
-58.7284
11
196.272
21
-58.9564
0
LINE
8
BLACK
6
CONTINUOUS
10
196.272
20
-58.9564
11
196.451
21
-59.2246
0
LINE
8
BLACK
6
CONTINUOUS
10
196.451
20
-59.2246
11
196.574
21
-59.5225
0
LINE
8
BLACK
6
CONTINUOUS
10
196.574
20
-59.5225
11
196.637
21
-59.8388
0
LINE
8
BLACK
6
CONTINUOUS
10
196.637
20
-59.8388
11
196.637
21
-60.1612
0
LINE
8
BLACK
6
CONTINUOUS
10
196.637
20
-60.1612
11
196.574
21
-60.4775
0
LINE
8
BLACK
6
CONTINUOUS
10
196.574
20
-60.4775
11
196.451
21
-60.7754
0
LINE
8
BLACK
6
CONTINUOUS
10
196.451
20
-60.7754
11
196.272
21
-61.0436
0
LINE
8
BLACK
6
CONTINUOUS
10
196.272
20
-61.0436
11
196.044
21
-61.2716
0
LINE
8
BLACK
6
CONTINUOUS
10
196.044
20
-61.2716
11
195.775
21
-61.4508
0
LINE
8
BLACK
6
CONTINUOUS
10
195.775
20
-61.4508
11
195.478
21
-61.5742
0
LINE
8
BLACK
6
CONTINUOUS
10
195.478
20
-61.5742
11
195.161
21
-61.6371
0
LINE
8
BLACK
6
CONTINUOUS
10
195.161
20
-61.6371
11
194.839
21
-61.6371
0
LINE
8
BLACK
6
CONTINUOUS
10
194.839
20
-61.6371
11
194.522
21
-61.5742
0
LINE
8
BLACK
6
CONTINUOUS
10
194.522
20
-61.5742
11
194.225
21
-61.4508
0
LINE
8
BLACK
6
CONTINUOUS
10
194.225
20
-61.4508
11
193.956
21
-61.2716
0
LINE
8
BLACK
6
CONTINUOUS
10
193.956
20
-61.2716
11
193.728
21
-61.0436
0
LINE
8
BLACK
6
CONTINUOUS
10
193.728
20
-61.0436
11
193.549
21
-60.7754
0
LINE
8
BLACK
6
CONTINUOUS
10
193.549
20
-60.7754
11
193.426
21
-60.4775
0
LINE
8
BLACK
6
CONTINUOUS
10
193.426
20
-60.4775
11
193.363
21
-60.1612
0
LINE
8
BLACK
6
CONTINUOUS
10
193.363
20
-60.1612
11
193.363
21
-59.8388
0
LINE
8
BLACK
6
CONTINUOUS
10
193.363
20
-59.8388
11
193.426
21
-59.5225
0
LINE
8
BLACK
6
CONTINUOUS
10
193.493
20
-60.4572
11
193.611
21
-60.7424
0
LINE
8
BLACK
6
CONTINUOUS
10
193.611
20
-60.7424
11
193.783
21
-60.9992
0
LINE
8
BLACK
6
CONTINUOUS
10
193.783
20
-60.9992
11
194.001
21
-61.2175
0
LINE
8
BLACK
6
CONTINUOUS
10
194.001
20
-61.2175
11
194.258
21
-61.389
0
LINE
8
BLACK
6
CONTINUOUS
10
194.258
20
-61.389
11
194.543
21
-61.5072
0
LINE
8
BLACK
6
CONTINUOUS
10
194.543
20
-61.5072
11
194.846
21
-61.5674
0
LINE
8
BLACK
6
CONTINUOUS
10
194.846
20
-61.5674
11
195.154
21
-61.5674
0
LINE
8
BLACK
6
CONTINUOUS
10
195.154
20
-61.5674
11
195.457
21
-61.5072
0
LINE
8
BLACK
6
CONTINUOUS
10
195.457
20
-61.5072
11
195.742
21
-61.389
0
LINE
8
BLACK
6
CONTINUOUS
10
195.742
20
-61.389
11
195.999
21
-61.2175
0
LINE
8
BLACK
6
CONTINUOUS
10
195.999
20
-61.2175
11
196.217
21
-60.9992
0
LINE
8
BLACK
6
CONTINUOUS
10
196.217
20
-60.9992
11
196.389
21
-60.7424
0
LINE
8
BLACK
6
CONTINUOUS
10
196.389
20
-60.7424
11
196.507
21
-60.4572
0
LINE
8
BLACK
6
CONTINUOUS
10
196.507
20
-60.4572
11
196.567
21
-60.1544
0
LINE
8
BLACK
6
CONTINUOUS
10
196.567
20
-60.1544
11
196.567
21
-59.8456
0
LINE
8
BLACK
6
CONTINUOUS
10
196.567
20
-59.8456
11
196.507
21
-59.5428
0
LINE
8
BLACK
6
CONTINUOUS
10
196.507
20
-59.5428
11
196.389
21
-59.2575
0
LINE
8
BLACK
6
CONTINUOUS
10
196.389
20
-59.2575
11
196.217
21
-59.0008
0
LINE
8
BLACK
6
CONTINUOUS
10
196.217
20
-59.0008
11
195.999
21
-58.7825
0
LINE
8
BLACK
6
CONTINUOUS
10
195.999
20
-58.7825
11
195.742
21
-58.611
0
LINE
8
BLACK
6
CONTINUOUS
10
195.742
20
-58.611
11
195.457
21
-58.4928
0
LINE
8
BLACK
6
CONTINUOUS
10
195.457
20
-58.4928
11
195.154
21
-58.4326
0
LINE
8
BLACK
6
CONTINUOUS
10
195.154
20
-58.4326
11
194.846
21
-58.4326
0
LINE
8
BLACK
6
CONTINUOUS
10
194.846
20
-58.4326
11
194.543
21
-58.4928
0
LINE
8
BLACK
6
CONTINUOUS
10
194.543
20
-58.4928
11
194.258
21
-58.611
0
LINE
8
BLACK
6
CONTINUOUS
10
194.258
20
-58.611
11
194.001
21
-58.7825
0
LINE
8
BLACK
6
CONTINUOUS
10
194.001
20
-58.7825
11
193.783
21
-59.0008
0
LINE
8
BLACK
6
CONTINUOUS
10
193.783
20
-59.0008
11
193.611
21
-59.2575
0
LINE
8
BLACK
6
CONTINUOUS
10
193.611
20
-59.2575
11
193.493
21
-59.5428
0
LINE
8
BLACK
6
CONTINUOUS
10
193.493
20
-59.5428
11
193.433
21
-59.8456
0
LINE
8
BLACK
6
CONTINUOUS
10
193.433
20
-59.8456
11
193.433
21
-60.1544
0
LINE
8
BLACK
6
CONTINUOUS
10
193.433
20
-60.1544
11
193.493
21
-60.4572
  0
ENDSEC
  0
EOF
