%TF.GenerationSoftware,KiCad,Pcbnew,(5.1.6)-1*%
%TF.CreationDate,2020-12-06T19:06:04+01:00*%
%TF.ProjectId,05_Bord,30355f42-6f72-4642-9e6b-696361645f70,rev?*%
%TF.SameCoordinates,Original*%
%TF.FileFunction,Copper,L1,Top*%
%TF.FilePolarity,Positive*%
%FSLAX46Y46*%
G04 Gerber Fmt 4.6, Leading zero omitted, Abs format (unit mm)*
G04 Created by KiCad (PCBNEW (5.1.6)-1) date 2020-12-06 19:06:04*
%MOMM*%
%LPD*%
G01*
G04 APERTURE LIST*
%TA.AperFunction,Profile*%
%ADD10C,0.150000*%
%TD*%
%TA.AperFunction,ComponentPad*%
%ADD11C,6.400000*%
%TD*%
%TA.AperFunction,ComponentPad*%
%ADD12C,0.800000*%
%TD*%
%TA.AperFunction,ViaPad*%
%ADD13C,1.000000*%
%TD*%
%TA.AperFunction,Conductor*%
%ADD14C,0.254000*%
%TD*%
G04 APERTURE END LIST*
D10*
X105000000Y-65000000D02*
G75*
G02*
X105000000Y-55000000I0J5000000D01*
G01*
X195000000Y-55000000D02*
G75*
G02*
X195000000Y-65000000I0J-5000000D01*
G01*
X105000000Y-55000000D02*
X195000000Y-55000000D01*
X105000000Y-65000000D02*
X195000000Y-65000000D01*
D11*
%TO.P,H1,1*%
%TO.N,GND*%
X105000000Y-60000000D03*
D12*
X107400000Y-60000000D03*
X106697056Y-61697056D03*
X105000000Y-62400000D03*
X103302944Y-61697056D03*
X102600000Y-60000000D03*
X103302944Y-58302944D03*
X105000000Y-57600000D03*
X106697056Y-58302944D03*
%TD*%
D11*
%TO.P,H2,1*%
%TO.N,GND*%
X195000000Y-60000000D03*
D12*
X197400000Y-60000000D03*
X196697056Y-61697056D03*
X195000000Y-62400000D03*
X193302944Y-61697056D03*
X192600000Y-60000000D03*
X193302944Y-58302944D03*
X195000000Y-57600000D03*
X196697056Y-58302944D03*
%TD*%
D13*
%TO.N,GND*%
X110000000Y-60000000D03*
X115000000Y-60000000D03*
X120000000Y-60000000D03*
X125000000Y-60000000D03*
X130000000Y-60000000D03*
X135000000Y-60000000D03*
X140000000Y-60000000D03*
X145000000Y-60000000D03*
X150000000Y-60000000D03*
X155000000Y-60000000D03*
X160000000Y-60000000D03*
X170000000Y-60000000D03*
X175000000Y-60000000D03*
X180000000Y-60000000D03*
X185000000Y-60000000D03*
X190000000Y-60000000D03*
X165000000Y-60000000D03*
%TD*%
D14*
%TO.N,GND*%
G36*
X195759192Y-55780578D02*
G01*
X196494389Y-55981705D01*
X197182351Y-56309846D01*
X197801331Y-56754628D01*
X198331761Y-57301988D01*
X198756884Y-57934639D01*
X199063251Y-58632561D01*
X199241187Y-59373718D01*
X199285062Y-60134664D01*
X199193492Y-60891357D01*
X198969372Y-61619871D01*
X198619784Y-62297185D01*
X198155778Y-62901889D01*
X197592024Y-63414866D01*
X196946337Y-63819904D01*
X196239129Y-64104199D01*
X195481765Y-64261042D01*
X194979543Y-64290000D01*
X105031618Y-64290000D01*
X104240807Y-64219422D01*
X103505611Y-64018295D01*
X102817645Y-63690152D01*
X102198672Y-63245374D01*
X101671020Y-62700881D01*
X102478724Y-62700881D01*
X102838912Y-63190548D01*
X103502882Y-63550849D01*
X104224385Y-63774694D01*
X104975695Y-63853480D01*
X105727938Y-63784178D01*
X106452208Y-63569452D01*
X107120670Y-63217555D01*
X107161088Y-63190548D01*
X107521276Y-62700881D01*
X192478724Y-62700881D01*
X192838912Y-63190548D01*
X193502882Y-63550849D01*
X194224385Y-63774694D01*
X194975695Y-63853480D01*
X195727938Y-63784178D01*
X196452208Y-63569452D01*
X197120670Y-63217555D01*
X197161088Y-63190548D01*
X197521276Y-62700881D01*
X195000000Y-60179605D01*
X192478724Y-62700881D01*
X107521276Y-62700881D01*
X105000000Y-60179605D01*
X102478724Y-62700881D01*
X101671020Y-62700881D01*
X101668239Y-62698012D01*
X101243117Y-62065362D01*
X100936749Y-61367439D01*
X100758813Y-60626284D01*
X100721302Y-59975695D01*
X101146520Y-59975695D01*
X101215822Y-60727938D01*
X101430548Y-61452208D01*
X101782445Y-62120670D01*
X101809452Y-62161088D01*
X102299119Y-62521276D01*
X104820395Y-60000000D01*
X105179605Y-60000000D01*
X107700881Y-62521276D01*
X108190548Y-62161088D01*
X108550849Y-61497118D01*
X108774694Y-60775615D01*
X108853480Y-60024305D01*
X108849002Y-59975695D01*
X191146520Y-59975695D01*
X191215822Y-60727938D01*
X191430548Y-61452208D01*
X191782445Y-62120670D01*
X191809452Y-62161088D01*
X192299119Y-62521276D01*
X194820395Y-60000000D01*
X195179605Y-60000000D01*
X197700881Y-62521276D01*
X198190548Y-62161088D01*
X198550849Y-61497118D01*
X198774694Y-60775615D01*
X198853480Y-60024305D01*
X198784178Y-59272062D01*
X198569452Y-58547792D01*
X198217555Y-57879330D01*
X198190548Y-57838912D01*
X197700881Y-57478724D01*
X195179605Y-60000000D01*
X194820395Y-60000000D01*
X192299119Y-57478724D01*
X191809452Y-57838912D01*
X191449151Y-58502882D01*
X191225306Y-59224385D01*
X191146520Y-59975695D01*
X108849002Y-59975695D01*
X108784178Y-59272062D01*
X108569452Y-58547792D01*
X108217555Y-57879330D01*
X108190548Y-57838912D01*
X107700881Y-57478724D01*
X105179605Y-60000000D01*
X104820395Y-60000000D01*
X102299119Y-57478724D01*
X101809452Y-57838912D01*
X101449151Y-58502882D01*
X101225306Y-59224385D01*
X101146520Y-59975695D01*
X100721302Y-59975695D01*
X100714938Y-59865336D01*
X100806508Y-59108643D01*
X101030629Y-58380127D01*
X101380214Y-57702818D01*
X101689983Y-57299119D01*
X102478724Y-57299119D01*
X105000000Y-59820395D01*
X107521276Y-57299119D01*
X192478724Y-57299119D01*
X195000000Y-59820395D01*
X197521276Y-57299119D01*
X197161088Y-56809452D01*
X196497118Y-56449151D01*
X195775615Y-56225306D01*
X195024305Y-56146520D01*
X194272062Y-56215822D01*
X193547792Y-56430548D01*
X192879330Y-56782445D01*
X192838912Y-56809452D01*
X192478724Y-57299119D01*
X107521276Y-57299119D01*
X107161088Y-56809452D01*
X106497118Y-56449151D01*
X105775615Y-56225306D01*
X105024305Y-56146520D01*
X104272062Y-56215822D01*
X103547792Y-56430548D01*
X102879330Y-56782445D01*
X102838912Y-56809452D01*
X102478724Y-57299119D01*
X101689983Y-57299119D01*
X101844223Y-57098111D01*
X102407974Y-56585136D01*
X103053663Y-56180096D01*
X103760870Y-55895801D01*
X104518235Y-55738958D01*
X105020458Y-55710000D01*
X194968382Y-55710000D01*
X195759192Y-55780578D01*
G37*
X195759192Y-55780578D02*
X196494389Y-55981705D01*
X197182351Y-56309846D01*
X197801331Y-56754628D01*
X198331761Y-57301988D01*
X198756884Y-57934639D01*
X199063251Y-58632561D01*
X199241187Y-59373718D01*
X199285062Y-60134664D01*
X199193492Y-60891357D01*
X198969372Y-61619871D01*
X198619784Y-62297185D01*
X198155778Y-62901889D01*
X197592024Y-63414866D01*
X196946337Y-63819904D01*
X196239129Y-64104199D01*
X195481765Y-64261042D01*
X194979543Y-64290000D01*
X105031618Y-64290000D01*
X104240807Y-64219422D01*
X103505611Y-64018295D01*
X102817645Y-63690152D01*
X102198672Y-63245374D01*
X101671020Y-62700881D01*
X102478724Y-62700881D01*
X102838912Y-63190548D01*
X103502882Y-63550849D01*
X104224385Y-63774694D01*
X104975695Y-63853480D01*
X105727938Y-63784178D01*
X106452208Y-63569452D01*
X107120670Y-63217555D01*
X107161088Y-63190548D01*
X107521276Y-62700881D01*
X192478724Y-62700881D01*
X192838912Y-63190548D01*
X193502882Y-63550849D01*
X194224385Y-63774694D01*
X194975695Y-63853480D01*
X195727938Y-63784178D01*
X196452208Y-63569452D01*
X197120670Y-63217555D01*
X197161088Y-63190548D01*
X197521276Y-62700881D01*
X195000000Y-60179605D01*
X192478724Y-62700881D01*
X107521276Y-62700881D01*
X105000000Y-60179605D01*
X102478724Y-62700881D01*
X101671020Y-62700881D01*
X101668239Y-62698012D01*
X101243117Y-62065362D01*
X100936749Y-61367439D01*
X100758813Y-60626284D01*
X100721302Y-59975695D01*
X101146520Y-59975695D01*
X101215822Y-60727938D01*
X101430548Y-61452208D01*
X101782445Y-62120670D01*
X101809452Y-62161088D01*
X102299119Y-62521276D01*
X104820395Y-60000000D01*
X105179605Y-60000000D01*
X107700881Y-62521276D01*
X108190548Y-62161088D01*
X108550849Y-61497118D01*
X108774694Y-60775615D01*
X108853480Y-60024305D01*
X108849002Y-59975695D01*
X191146520Y-59975695D01*
X191215822Y-60727938D01*
X191430548Y-61452208D01*
X191782445Y-62120670D01*
X191809452Y-62161088D01*
X192299119Y-62521276D01*
X194820395Y-60000000D01*
X195179605Y-60000000D01*
X197700881Y-62521276D01*
X198190548Y-62161088D01*
X198550849Y-61497118D01*
X198774694Y-60775615D01*
X198853480Y-60024305D01*
X198784178Y-59272062D01*
X198569452Y-58547792D01*
X198217555Y-57879330D01*
X198190548Y-57838912D01*
X197700881Y-57478724D01*
X195179605Y-60000000D01*
X194820395Y-60000000D01*
X192299119Y-57478724D01*
X191809452Y-57838912D01*
X191449151Y-58502882D01*
X191225306Y-59224385D01*
X191146520Y-59975695D01*
X108849002Y-59975695D01*
X108784178Y-59272062D01*
X108569452Y-58547792D01*
X108217555Y-57879330D01*
X108190548Y-57838912D01*
X107700881Y-57478724D01*
X105179605Y-60000000D01*
X104820395Y-60000000D01*
X102299119Y-57478724D01*
X101809452Y-57838912D01*
X101449151Y-58502882D01*
X101225306Y-59224385D01*
X101146520Y-59975695D01*
X100721302Y-59975695D01*
X100714938Y-59865336D01*
X100806508Y-59108643D01*
X101030629Y-58380127D01*
X101380214Y-57702818D01*
X101689983Y-57299119D01*
X102478724Y-57299119D01*
X105000000Y-59820395D01*
X107521276Y-57299119D01*
X192478724Y-57299119D01*
X195000000Y-59820395D01*
X197521276Y-57299119D01*
X197161088Y-56809452D01*
X196497118Y-56449151D01*
X195775615Y-56225306D01*
X195024305Y-56146520D01*
X194272062Y-56215822D01*
X193547792Y-56430548D01*
X192879330Y-56782445D01*
X192838912Y-56809452D01*
X192478724Y-57299119D01*
X107521276Y-57299119D01*
X107161088Y-56809452D01*
X106497118Y-56449151D01*
X105775615Y-56225306D01*
X105024305Y-56146520D01*
X104272062Y-56215822D01*
X103547792Y-56430548D01*
X102879330Y-56782445D01*
X102838912Y-56809452D01*
X102478724Y-57299119D01*
X101689983Y-57299119D01*
X101844223Y-57098111D01*
X102407974Y-56585136D01*
X103053663Y-56180096D01*
X103760870Y-55895801D01*
X104518235Y-55738958D01*
X105020458Y-55710000D01*
X194968382Y-55710000D01*
X195759192Y-55780578D01*
%TD*%
M02*
