M48
; DRILL file {KiCad (5.1.6)-1} date 12/06/20 19:06:07
; FORMAT={-:-/ absolute / inch / decimal}
; #@! TF.CreationDate,2020-12-06T19:06:07+01:00
; #@! TF.GenerationSoftware,Kicad,Pcbnew,(5.1.6)-1
; #@! TF.FileFunction,Plated,1,2,PTH
FMAT,2
INCH
T1C0.0197
T2C0.0236
T3C0.1260
%
G90
G05
T1
X7.5827Y-2.3622
X7.6104Y-2.2954
X7.6104Y-2.429
X7.6772Y-2.2677
X7.6772Y-2.4567
X7.744Y-2.2954
X7.744Y-2.429
X7.7717Y-2.3622
X4.0394Y-2.3622
X4.067Y-2.2954
X4.067Y-2.429
X4.1339Y-2.2677
X4.1339Y-2.4567
X4.2007Y-2.2954
X4.2007Y-2.429
X4.2283Y-2.3622
T2
X4.3307Y-2.3622
X4.5276Y-2.3622
X4.7244Y-2.3622
X4.9213Y-2.3622
X5.1181Y-2.3622
X5.315Y-2.3622
X5.5118Y-2.3622
X5.7087Y-2.3622
X5.9055Y-2.3622
X6.1024Y-2.3622
X6.2992Y-2.3622
X6.4961Y-2.3622
X6.6929Y-2.3622
X6.8898Y-2.3622
X7.0866Y-2.3622
X7.2835Y-2.3622
X7.4803Y-2.3622
T3
X7.6772Y-2.3622
X4.1339Y-2.3622
T0
M30
