%TF.GenerationSoftware,KiCad,Pcbnew,(5.1.6)-1*%
%TF.CreationDate,2020-12-06T18:47:15+01:00*%
%TF.ProjectId,05_Contour,30355f43-6f6e-4746-9f75-722e6b696361,rev?*%
%TF.SameCoordinates,Original*%
%TF.FileFunction,Other,Fab,Top*%
%FSLAX46Y46*%
G04 Gerber Fmt 4.6, Leading zero omitted, Abs format (unit mm)*
G04 Created by KiCad (PCBNEW (5.1.6)-1) date 2020-12-06 18:47:15*
%MOMM*%
%LPD*%
G01*
G04 APERTURE LIST*
%TA.AperFunction,Profile*%
%ADD10C,0.150000*%
%TD*%
%ADD11C,0.150000*%
G04 APERTURE END LIST*
D10*
X195000000Y-55000000D02*
G75*
G02*
X200000000Y-60000000I0J-5000000D01*
G01*
X200000000Y-150000000D02*
G75*
G02*
X195000000Y-155000000I-5000000J0D01*
G01*
X105000000Y-155000000D02*
G75*
G02*
X100000000Y-150000000I0J5000000D01*
G01*
X100000000Y-60000000D02*
G75*
G02*
X105000000Y-55000000I5000000J0D01*
G01*
X100000000Y-150000000D02*
X100000000Y-60000000D01*
X195000000Y-155000000D02*
X105000000Y-155000000D01*
X200000000Y-60000000D02*
X200000000Y-150000000D01*
X105000000Y-55000000D02*
X195000000Y-55000000D01*
X110000000Y-65000000D02*
X110000000Y-145000000D01*
X190000000Y-145000000D02*
X110000000Y-145000000D01*
X190000000Y-65000000D02*
X190000000Y-145000000D01*
X110000000Y-65000000D02*
X190000000Y-65000000D01*
%TO.C,H1*%
D11*
X98428571Y-64652380D02*
X98428571Y-63652380D01*
X98761904Y-64366666D01*
X99095238Y-63652380D01*
X99095238Y-64652380D01*
X99714285Y-64652380D02*
X99619047Y-64604761D01*
X99571428Y-64557142D01*
X99523809Y-64461904D01*
X99523809Y-64176190D01*
X99571428Y-64080952D01*
X99619047Y-64033333D01*
X99714285Y-63985714D01*
X99857142Y-63985714D01*
X99952380Y-64033333D01*
X100000000Y-64080952D01*
X100047619Y-64176190D01*
X100047619Y-64461904D01*
X100000000Y-64557142D01*
X99952380Y-64604761D01*
X99857142Y-64652380D01*
X99714285Y-64652380D01*
X100904761Y-63985714D02*
X100904761Y-64652380D01*
X100476190Y-63985714D02*
X100476190Y-64509523D01*
X100523809Y-64604761D01*
X100619047Y-64652380D01*
X100761904Y-64652380D01*
X100857142Y-64604761D01*
X100904761Y-64557142D01*
X101380952Y-63985714D02*
X101380952Y-64652380D01*
X101380952Y-64080952D02*
X101428571Y-64033333D01*
X101523809Y-63985714D01*
X101666666Y-63985714D01*
X101761904Y-64033333D01*
X101809523Y-64128571D01*
X101809523Y-64652380D01*
X102142857Y-63985714D02*
X102523809Y-63985714D01*
X102285714Y-63652380D02*
X102285714Y-64509523D01*
X102333333Y-64604761D01*
X102428571Y-64652380D01*
X102523809Y-64652380D01*
X102857142Y-64652380D02*
X102857142Y-63985714D01*
X102857142Y-63652380D02*
X102809523Y-63700000D01*
X102857142Y-63747619D01*
X102904761Y-63700000D01*
X102857142Y-63652380D01*
X102857142Y-63747619D01*
X103333333Y-63985714D02*
X103333333Y-64652380D01*
X103333333Y-64080952D02*
X103380952Y-64033333D01*
X103476190Y-63985714D01*
X103619047Y-63985714D01*
X103714285Y-64033333D01*
X103761904Y-64128571D01*
X103761904Y-64652380D01*
X104666666Y-63985714D02*
X104666666Y-64795238D01*
X104619047Y-64890476D01*
X104571428Y-64938095D01*
X104476190Y-64985714D01*
X104333333Y-64985714D01*
X104238095Y-64938095D01*
X104666666Y-64604761D02*
X104571428Y-64652380D01*
X104380952Y-64652380D01*
X104285714Y-64604761D01*
X104238095Y-64557142D01*
X104190476Y-64461904D01*
X104190476Y-64176190D01*
X104238095Y-64080952D01*
X104285714Y-64033333D01*
X104380952Y-63985714D01*
X104571428Y-63985714D01*
X104666666Y-64033333D01*
X105142857Y-64652380D02*
X105142857Y-63652380D01*
X105142857Y-64128571D02*
X105714285Y-64128571D01*
X105714285Y-64652380D02*
X105714285Y-63652380D01*
X106333333Y-64652380D02*
X106238095Y-64604761D01*
X106190476Y-64557142D01*
X106142857Y-64461904D01*
X106142857Y-64176190D01*
X106190476Y-64080952D01*
X106238095Y-64033333D01*
X106333333Y-63985714D01*
X106476190Y-63985714D01*
X106571428Y-64033333D01*
X106619047Y-64080952D01*
X106666666Y-64176190D01*
X106666666Y-64461904D01*
X106619047Y-64557142D01*
X106571428Y-64604761D01*
X106476190Y-64652380D01*
X106333333Y-64652380D01*
X107238095Y-64652380D02*
X107142857Y-64604761D01*
X107095238Y-64509523D01*
X107095238Y-63652380D01*
X108000000Y-64604761D02*
X107904761Y-64652380D01*
X107714285Y-64652380D01*
X107619047Y-64604761D01*
X107571428Y-64509523D01*
X107571428Y-64128571D01*
X107619047Y-64033333D01*
X107714285Y-63985714D01*
X107904761Y-63985714D01*
X108000000Y-64033333D01*
X108047619Y-64128571D01*
X108047619Y-64223809D01*
X107571428Y-64319047D01*
X108238095Y-64747619D02*
X109000000Y-64747619D01*
X109238095Y-64652380D02*
X109238095Y-63652380D01*
X109619047Y-63652380D01*
X109714285Y-63700000D01*
X109761904Y-63747619D01*
X109809523Y-63842857D01*
X109809523Y-63985714D01*
X109761904Y-64080952D01*
X109714285Y-64128571D01*
X109619047Y-64176190D01*
X109238095Y-64176190D01*
X110666666Y-64652380D02*
X110666666Y-64128571D01*
X110619047Y-64033333D01*
X110523809Y-63985714D01*
X110333333Y-63985714D01*
X110238095Y-64033333D01*
X110666666Y-64604761D02*
X110571428Y-64652380D01*
X110333333Y-64652380D01*
X110238095Y-64604761D01*
X110190476Y-64509523D01*
X110190476Y-64414285D01*
X110238095Y-64319047D01*
X110333333Y-64271428D01*
X110571428Y-64271428D01*
X110666666Y-64223809D01*
X111571428Y-64652380D02*
X111571428Y-63652380D01*
X111571428Y-64604761D02*
X111476190Y-64652380D01*
X111285714Y-64652380D01*
X111190476Y-64604761D01*
X111142857Y-64557142D01*
X111095238Y-64461904D01*
X111095238Y-64176190D01*
X111142857Y-64080952D01*
X111190476Y-64033333D01*
X111285714Y-63985714D01*
X111476190Y-63985714D01*
X111571428Y-64033333D01*
X104538095Y-60452380D02*
X104538095Y-59452380D01*
X104538095Y-59928571D02*
X105109523Y-59928571D01*
X105109523Y-60452380D02*
X105109523Y-59452380D01*
X106109523Y-60452380D02*
X105538095Y-60452380D01*
X105823809Y-60452380D02*
X105823809Y-59452380D01*
X105728571Y-59595238D01*
X105633333Y-59690476D01*
X105538095Y-59738095D01*
%TO.C,H2*%
X188428571Y-64652380D02*
X188428571Y-63652380D01*
X188761904Y-64366666D01*
X189095238Y-63652380D01*
X189095238Y-64652380D01*
X189714285Y-64652380D02*
X189619047Y-64604761D01*
X189571428Y-64557142D01*
X189523809Y-64461904D01*
X189523809Y-64176190D01*
X189571428Y-64080952D01*
X189619047Y-64033333D01*
X189714285Y-63985714D01*
X189857142Y-63985714D01*
X189952380Y-64033333D01*
X190000000Y-64080952D01*
X190047619Y-64176190D01*
X190047619Y-64461904D01*
X190000000Y-64557142D01*
X189952380Y-64604761D01*
X189857142Y-64652380D01*
X189714285Y-64652380D01*
X190904761Y-63985714D02*
X190904761Y-64652380D01*
X190476190Y-63985714D02*
X190476190Y-64509523D01*
X190523809Y-64604761D01*
X190619047Y-64652380D01*
X190761904Y-64652380D01*
X190857142Y-64604761D01*
X190904761Y-64557142D01*
X191380952Y-63985714D02*
X191380952Y-64652380D01*
X191380952Y-64080952D02*
X191428571Y-64033333D01*
X191523809Y-63985714D01*
X191666666Y-63985714D01*
X191761904Y-64033333D01*
X191809523Y-64128571D01*
X191809523Y-64652380D01*
X192142857Y-63985714D02*
X192523809Y-63985714D01*
X192285714Y-63652380D02*
X192285714Y-64509523D01*
X192333333Y-64604761D01*
X192428571Y-64652380D01*
X192523809Y-64652380D01*
X192857142Y-64652380D02*
X192857142Y-63985714D01*
X192857142Y-63652380D02*
X192809523Y-63700000D01*
X192857142Y-63747619D01*
X192904761Y-63700000D01*
X192857142Y-63652380D01*
X192857142Y-63747619D01*
X193333333Y-63985714D02*
X193333333Y-64652380D01*
X193333333Y-64080952D02*
X193380952Y-64033333D01*
X193476190Y-63985714D01*
X193619047Y-63985714D01*
X193714285Y-64033333D01*
X193761904Y-64128571D01*
X193761904Y-64652380D01*
X194666666Y-63985714D02*
X194666666Y-64795238D01*
X194619047Y-64890476D01*
X194571428Y-64938095D01*
X194476190Y-64985714D01*
X194333333Y-64985714D01*
X194238095Y-64938095D01*
X194666666Y-64604761D02*
X194571428Y-64652380D01*
X194380952Y-64652380D01*
X194285714Y-64604761D01*
X194238095Y-64557142D01*
X194190476Y-64461904D01*
X194190476Y-64176190D01*
X194238095Y-64080952D01*
X194285714Y-64033333D01*
X194380952Y-63985714D01*
X194571428Y-63985714D01*
X194666666Y-64033333D01*
X195142857Y-64652380D02*
X195142857Y-63652380D01*
X195142857Y-64128571D02*
X195714285Y-64128571D01*
X195714285Y-64652380D02*
X195714285Y-63652380D01*
X196333333Y-64652380D02*
X196238095Y-64604761D01*
X196190476Y-64557142D01*
X196142857Y-64461904D01*
X196142857Y-64176190D01*
X196190476Y-64080952D01*
X196238095Y-64033333D01*
X196333333Y-63985714D01*
X196476190Y-63985714D01*
X196571428Y-64033333D01*
X196619047Y-64080952D01*
X196666666Y-64176190D01*
X196666666Y-64461904D01*
X196619047Y-64557142D01*
X196571428Y-64604761D01*
X196476190Y-64652380D01*
X196333333Y-64652380D01*
X197238095Y-64652380D02*
X197142857Y-64604761D01*
X197095238Y-64509523D01*
X197095238Y-63652380D01*
X198000000Y-64604761D02*
X197904761Y-64652380D01*
X197714285Y-64652380D01*
X197619047Y-64604761D01*
X197571428Y-64509523D01*
X197571428Y-64128571D01*
X197619047Y-64033333D01*
X197714285Y-63985714D01*
X197904761Y-63985714D01*
X198000000Y-64033333D01*
X198047619Y-64128571D01*
X198047619Y-64223809D01*
X197571428Y-64319047D01*
X198238095Y-64747619D02*
X199000000Y-64747619D01*
X199238095Y-64652380D02*
X199238095Y-63652380D01*
X199619047Y-63652380D01*
X199714285Y-63700000D01*
X199761904Y-63747619D01*
X199809523Y-63842857D01*
X199809523Y-63985714D01*
X199761904Y-64080952D01*
X199714285Y-64128571D01*
X199619047Y-64176190D01*
X199238095Y-64176190D01*
X200666666Y-64652380D02*
X200666666Y-64128571D01*
X200619047Y-64033333D01*
X200523809Y-63985714D01*
X200333333Y-63985714D01*
X200238095Y-64033333D01*
X200666666Y-64604761D02*
X200571428Y-64652380D01*
X200333333Y-64652380D01*
X200238095Y-64604761D01*
X200190476Y-64509523D01*
X200190476Y-64414285D01*
X200238095Y-64319047D01*
X200333333Y-64271428D01*
X200571428Y-64271428D01*
X200666666Y-64223809D01*
X201571428Y-64652380D02*
X201571428Y-63652380D01*
X201571428Y-64604761D02*
X201476190Y-64652380D01*
X201285714Y-64652380D01*
X201190476Y-64604761D01*
X201142857Y-64557142D01*
X201095238Y-64461904D01*
X201095238Y-64176190D01*
X201142857Y-64080952D01*
X201190476Y-64033333D01*
X201285714Y-63985714D01*
X201476190Y-63985714D01*
X201571428Y-64033333D01*
X194538095Y-60452380D02*
X194538095Y-59452380D01*
X194538095Y-59928571D02*
X195109523Y-59928571D01*
X195109523Y-60452380D02*
X195109523Y-59452380D01*
X195538095Y-59547619D02*
X195585714Y-59500000D01*
X195680952Y-59452380D01*
X195919047Y-59452380D01*
X196014285Y-59500000D01*
X196061904Y-59547619D01*
X196109523Y-59642857D01*
X196109523Y-59738095D01*
X196061904Y-59880952D01*
X195490476Y-60452380D01*
X196109523Y-60452380D01*
%TO.C,H3*%
X188428571Y-154652380D02*
X188428571Y-153652380D01*
X188761904Y-154366666D01*
X189095238Y-153652380D01*
X189095238Y-154652380D01*
X189714285Y-154652380D02*
X189619047Y-154604761D01*
X189571428Y-154557142D01*
X189523809Y-154461904D01*
X189523809Y-154176190D01*
X189571428Y-154080952D01*
X189619047Y-154033333D01*
X189714285Y-153985714D01*
X189857142Y-153985714D01*
X189952380Y-154033333D01*
X190000000Y-154080952D01*
X190047619Y-154176190D01*
X190047619Y-154461904D01*
X190000000Y-154557142D01*
X189952380Y-154604761D01*
X189857142Y-154652380D01*
X189714285Y-154652380D01*
X190904761Y-153985714D02*
X190904761Y-154652380D01*
X190476190Y-153985714D02*
X190476190Y-154509523D01*
X190523809Y-154604761D01*
X190619047Y-154652380D01*
X190761904Y-154652380D01*
X190857142Y-154604761D01*
X190904761Y-154557142D01*
X191380952Y-153985714D02*
X191380952Y-154652380D01*
X191380952Y-154080952D02*
X191428571Y-154033333D01*
X191523809Y-153985714D01*
X191666666Y-153985714D01*
X191761904Y-154033333D01*
X191809523Y-154128571D01*
X191809523Y-154652380D01*
X192142857Y-153985714D02*
X192523809Y-153985714D01*
X192285714Y-153652380D02*
X192285714Y-154509523D01*
X192333333Y-154604761D01*
X192428571Y-154652380D01*
X192523809Y-154652380D01*
X192857142Y-154652380D02*
X192857142Y-153985714D01*
X192857142Y-153652380D02*
X192809523Y-153700000D01*
X192857142Y-153747619D01*
X192904761Y-153700000D01*
X192857142Y-153652380D01*
X192857142Y-153747619D01*
X193333333Y-153985714D02*
X193333333Y-154652380D01*
X193333333Y-154080952D02*
X193380952Y-154033333D01*
X193476190Y-153985714D01*
X193619047Y-153985714D01*
X193714285Y-154033333D01*
X193761904Y-154128571D01*
X193761904Y-154652380D01*
X194666666Y-153985714D02*
X194666666Y-154795238D01*
X194619047Y-154890476D01*
X194571428Y-154938095D01*
X194476190Y-154985714D01*
X194333333Y-154985714D01*
X194238095Y-154938095D01*
X194666666Y-154604761D02*
X194571428Y-154652380D01*
X194380952Y-154652380D01*
X194285714Y-154604761D01*
X194238095Y-154557142D01*
X194190476Y-154461904D01*
X194190476Y-154176190D01*
X194238095Y-154080952D01*
X194285714Y-154033333D01*
X194380952Y-153985714D01*
X194571428Y-153985714D01*
X194666666Y-154033333D01*
X195142857Y-154652380D02*
X195142857Y-153652380D01*
X195142857Y-154128571D02*
X195714285Y-154128571D01*
X195714285Y-154652380D02*
X195714285Y-153652380D01*
X196333333Y-154652380D02*
X196238095Y-154604761D01*
X196190476Y-154557142D01*
X196142857Y-154461904D01*
X196142857Y-154176190D01*
X196190476Y-154080952D01*
X196238095Y-154033333D01*
X196333333Y-153985714D01*
X196476190Y-153985714D01*
X196571428Y-154033333D01*
X196619047Y-154080952D01*
X196666666Y-154176190D01*
X196666666Y-154461904D01*
X196619047Y-154557142D01*
X196571428Y-154604761D01*
X196476190Y-154652380D01*
X196333333Y-154652380D01*
X197238095Y-154652380D02*
X197142857Y-154604761D01*
X197095238Y-154509523D01*
X197095238Y-153652380D01*
X198000000Y-154604761D02*
X197904761Y-154652380D01*
X197714285Y-154652380D01*
X197619047Y-154604761D01*
X197571428Y-154509523D01*
X197571428Y-154128571D01*
X197619047Y-154033333D01*
X197714285Y-153985714D01*
X197904761Y-153985714D01*
X198000000Y-154033333D01*
X198047619Y-154128571D01*
X198047619Y-154223809D01*
X197571428Y-154319047D01*
X198238095Y-154747619D02*
X199000000Y-154747619D01*
X199238095Y-154652380D02*
X199238095Y-153652380D01*
X199619047Y-153652380D01*
X199714285Y-153700000D01*
X199761904Y-153747619D01*
X199809523Y-153842857D01*
X199809523Y-153985714D01*
X199761904Y-154080952D01*
X199714285Y-154128571D01*
X199619047Y-154176190D01*
X199238095Y-154176190D01*
X200666666Y-154652380D02*
X200666666Y-154128571D01*
X200619047Y-154033333D01*
X200523809Y-153985714D01*
X200333333Y-153985714D01*
X200238095Y-154033333D01*
X200666666Y-154604761D02*
X200571428Y-154652380D01*
X200333333Y-154652380D01*
X200238095Y-154604761D01*
X200190476Y-154509523D01*
X200190476Y-154414285D01*
X200238095Y-154319047D01*
X200333333Y-154271428D01*
X200571428Y-154271428D01*
X200666666Y-154223809D01*
X201571428Y-154652380D02*
X201571428Y-153652380D01*
X201571428Y-154604761D02*
X201476190Y-154652380D01*
X201285714Y-154652380D01*
X201190476Y-154604761D01*
X201142857Y-154557142D01*
X201095238Y-154461904D01*
X201095238Y-154176190D01*
X201142857Y-154080952D01*
X201190476Y-154033333D01*
X201285714Y-153985714D01*
X201476190Y-153985714D01*
X201571428Y-154033333D01*
X194538095Y-150452380D02*
X194538095Y-149452380D01*
X194538095Y-149928571D02*
X195109523Y-149928571D01*
X195109523Y-150452380D02*
X195109523Y-149452380D01*
X195490476Y-149452380D02*
X196109523Y-149452380D01*
X195776190Y-149833333D01*
X195919047Y-149833333D01*
X196014285Y-149880952D01*
X196061904Y-149928571D01*
X196109523Y-150023809D01*
X196109523Y-150261904D01*
X196061904Y-150357142D01*
X196014285Y-150404761D01*
X195919047Y-150452380D01*
X195633333Y-150452380D01*
X195538095Y-150404761D01*
X195490476Y-150357142D01*
%TO.C,H4*%
X98428571Y-154652380D02*
X98428571Y-153652380D01*
X98761904Y-154366666D01*
X99095238Y-153652380D01*
X99095238Y-154652380D01*
X99714285Y-154652380D02*
X99619047Y-154604761D01*
X99571428Y-154557142D01*
X99523809Y-154461904D01*
X99523809Y-154176190D01*
X99571428Y-154080952D01*
X99619047Y-154033333D01*
X99714285Y-153985714D01*
X99857142Y-153985714D01*
X99952380Y-154033333D01*
X100000000Y-154080952D01*
X100047619Y-154176190D01*
X100047619Y-154461904D01*
X100000000Y-154557142D01*
X99952380Y-154604761D01*
X99857142Y-154652380D01*
X99714285Y-154652380D01*
X100904761Y-153985714D02*
X100904761Y-154652380D01*
X100476190Y-153985714D02*
X100476190Y-154509523D01*
X100523809Y-154604761D01*
X100619047Y-154652380D01*
X100761904Y-154652380D01*
X100857142Y-154604761D01*
X100904761Y-154557142D01*
X101380952Y-153985714D02*
X101380952Y-154652380D01*
X101380952Y-154080952D02*
X101428571Y-154033333D01*
X101523809Y-153985714D01*
X101666666Y-153985714D01*
X101761904Y-154033333D01*
X101809523Y-154128571D01*
X101809523Y-154652380D01*
X102142857Y-153985714D02*
X102523809Y-153985714D01*
X102285714Y-153652380D02*
X102285714Y-154509523D01*
X102333333Y-154604761D01*
X102428571Y-154652380D01*
X102523809Y-154652380D01*
X102857142Y-154652380D02*
X102857142Y-153985714D01*
X102857142Y-153652380D02*
X102809523Y-153700000D01*
X102857142Y-153747619D01*
X102904761Y-153700000D01*
X102857142Y-153652380D01*
X102857142Y-153747619D01*
X103333333Y-153985714D02*
X103333333Y-154652380D01*
X103333333Y-154080952D02*
X103380952Y-154033333D01*
X103476190Y-153985714D01*
X103619047Y-153985714D01*
X103714285Y-154033333D01*
X103761904Y-154128571D01*
X103761904Y-154652380D01*
X104666666Y-153985714D02*
X104666666Y-154795238D01*
X104619047Y-154890476D01*
X104571428Y-154938095D01*
X104476190Y-154985714D01*
X104333333Y-154985714D01*
X104238095Y-154938095D01*
X104666666Y-154604761D02*
X104571428Y-154652380D01*
X104380952Y-154652380D01*
X104285714Y-154604761D01*
X104238095Y-154557142D01*
X104190476Y-154461904D01*
X104190476Y-154176190D01*
X104238095Y-154080952D01*
X104285714Y-154033333D01*
X104380952Y-153985714D01*
X104571428Y-153985714D01*
X104666666Y-154033333D01*
X105142857Y-154652380D02*
X105142857Y-153652380D01*
X105142857Y-154128571D02*
X105714285Y-154128571D01*
X105714285Y-154652380D02*
X105714285Y-153652380D01*
X106333333Y-154652380D02*
X106238095Y-154604761D01*
X106190476Y-154557142D01*
X106142857Y-154461904D01*
X106142857Y-154176190D01*
X106190476Y-154080952D01*
X106238095Y-154033333D01*
X106333333Y-153985714D01*
X106476190Y-153985714D01*
X106571428Y-154033333D01*
X106619047Y-154080952D01*
X106666666Y-154176190D01*
X106666666Y-154461904D01*
X106619047Y-154557142D01*
X106571428Y-154604761D01*
X106476190Y-154652380D01*
X106333333Y-154652380D01*
X107238095Y-154652380D02*
X107142857Y-154604761D01*
X107095238Y-154509523D01*
X107095238Y-153652380D01*
X108000000Y-154604761D02*
X107904761Y-154652380D01*
X107714285Y-154652380D01*
X107619047Y-154604761D01*
X107571428Y-154509523D01*
X107571428Y-154128571D01*
X107619047Y-154033333D01*
X107714285Y-153985714D01*
X107904761Y-153985714D01*
X108000000Y-154033333D01*
X108047619Y-154128571D01*
X108047619Y-154223809D01*
X107571428Y-154319047D01*
X108238095Y-154747619D02*
X109000000Y-154747619D01*
X109238095Y-154652380D02*
X109238095Y-153652380D01*
X109619047Y-153652380D01*
X109714285Y-153700000D01*
X109761904Y-153747619D01*
X109809523Y-153842857D01*
X109809523Y-153985714D01*
X109761904Y-154080952D01*
X109714285Y-154128571D01*
X109619047Y-154176190D01*
X109238095Y-154176190D01*
X110666666Y-154652380D02*
X110666666Y-154128571D01*
X110619047Y-154033333D01*
X110523809Y-153985714D01*
X110333333Y-153985714D01*
X110238095Y-154033333D01*
X110666666Y-154604761D02*
X110571428Y-154652380D01*
X110333333Y-154652380D01*
X110238095Y-154604761D01*
X110190476Y-154509523D01*
X110190476Y-154414285D01*
X110238095Y-154319047D01*
X110333333Y-154271428D01*
X110571428Y-154271428D01*
X110666666Y-154223809D01*
X111571428Y-154652380D02*
X111571428Y-153652380D01*
X111571428Y-154604761D02*
X111476190Y-154652380D01*
X111285714Y-154652380D01*
X111190476Y-154604761D01*
X111142857Y-154557142D01*
X111095238Y-154461904D01*
X111095238Y-154176190D01*
X111142857Y-154080952D01*
X111190476Y-154033333D01*
X111285714Y-153985714D01*
X111476190Y-153985714D01*
X111571428Y-154033333D01*
X104538095Y-150452380D02*
X104538095Y-149452380D01*
X104538095Y-149928571D02*
X105109523Y-149928571D01*
X105109523Y-150452380D02*
X105109523Y-149452380D01*
X106014285Y-149785714D02*
X106014285Y-150452380D01*
X105776190Y-149404761D02*
X105538095Y-150119047D01*
X106157142Y-150119047D01*
%TD*%
M02*
