%TF.GenerationSoftware,KiCad,Pcbnew,(5.1.6)-1*%
%TF.CreationDate,2020-12-06T18:47:15+01:00*%
%TF.ProjectId,05_Contour,30355f43-6f6e-4746-9f75-722e6b696361,rev?*%
%TF.SameCoordinates,Original*%
%TF.FileFunction,Soldermask,Bot*%
%TF.FilePolarity,Negative*%
%FSLAX46Y46*%
G04 Gerber Fmt 4.6, Leading zero omitted, Abs format (unit mm)*
G04 Created by KiCad (PCBNEW (5.1.6)-1) date 2020-12-06 18:47:15*
%MOMM*%
%LPD*%
G01*
G04 APERTURE LIST*
%TA.AperFunction,Profile*%
%ADD10C,0.150000*%
%TD*%
%ADD11C,6.500000*%
%ADD12C,0.900000*%
G04 APERTURE END LIST*
D10*
X195000000Y-55000000D02*
G75*
G02*
X200000000Y-60000000I0J-5000000D01*
G01*
X200000000Y-150000000D02*
G75*
G02*
X195000000Y-155000000I-5000000J0D01*
G01*
X105000000Y-155000000D02*
G75*
G02*
X100000000Y-150000000I0J5000000D01*
G01*
X100000000Y-60000000D02*
G75*
G02*
X105000000Y-55000000I5000000J0D01*
G01*
X100000000Y-150000000D02*
X100000000Y-60000000D01*
X195000000Y-155000000D02*
X105000000Y-155000000D01*
X200000000Y-60000000D02*
X200000000Y-150000000D01*
X105000000Y-55000000D02*
X195000000Y-55000000D01*
X110000000Y-65000000D02*
X110000000Y-145000000D01*
X190000000Y-145000000D02*
X110000000Y-145000000D01*
X190000000Y-65000000D02*
X190000000Y-145000000D01*
X110000000Y-65000000D02*
X190000000Y-65000000D01*
D11*
%TO.C,H1*%
X105000000Y-60000000D03*
D12*
X107400000Y-60000000D03*
X106697056Y-61697056D03*
X105000000Y-62400000D03*
X103302944Y-61697056D03*
X102600000Y-60000000D03*
X103302944Y-58302944D03*
X105000000Y-57600000D03*
X106697056Y-58302944D03*
%TD*%
D11*
%TO.C,H2*%
X195000000Y-60000000D03*
D12*
X197400000Y-60000000D03*
X196697056Y-61697056D03*
X195000000Y-62400000D03*
X193302944Y-61697056D03*
X192600000Y-60000000D03*
X193302944Y-58302944D03*
X195000000Y-57600000D03*
X196697056Y-58302944D03*
%TD*%
%TO.C,H3*%
X196697056Y-148302944D03*
X195000000Y-147600000D03*
X193302944Y-148302944D03*
X192600000Y-150000000D03*
X193302944Y-151697056D03*
X195000000Y-152400000D03*
X196697056Y-151697056D03*
X197400000Y-150000000D03*
D11*
X195000000Y-150000000D03*
%TD*%
D12*
%TO.C,H4*%
X106697056Y-148302944D03*
X105000000Y-147600000D03*
X103302944Y-148302944D03*
X102600000Y-150000000D03*
X103302944Y-151697056D03*
X105000000Y-152400000D03*
X106697056Y-151697056D03*
X107400000Y-150000000D03*
D11*
X105000000Y-150000000D03*
%TD*%
M02*
