%TF.GenerationSoftware,KiCad,Pcbnew,(5.1.6)-1*%
%TF.CreationDate,2020-12-06T18:47:15+01:00*%
%TF.ProjectId,05_Contour,30355f43-6f6e-4746-9f75-722e6b696361,rev?*%
%TF.SameCoordinates,Original*%
%TF.FileFunction,Legend,Top*%
%TF.FilePolarity,Positive*%
%FSLAX46Y46*%
G04 Gerber Fmt 4.6, Leading zero omitted, Abs format (unit mm)*
G04 Created by KiCad (PCBNEW (5.1.6)-1) date 2020-12-06 18:47:15*
%MOMM*%
%LPD*%
G01*
G04 APERTURE LIST*
%TA.AperFunction,Profile*%
%ADD10C,0.150000*%
%TD*%
%ADD11C,0.150000*%
G04 APERTURE END LIST*
D10*
X195000000Y-55000000D02*
G75*
G02*
X200000000Y-60000000I0J-5000000D01*
G01*
X200000000Y-150000000D02*
G75*
G02*
X195000000Y-155000000I-5000000J0D01*
G01*
X105000000Y-155000000D02*
G75*
G02*
X100000000Y-150000000I0J5000000D01*
G01*
X100000000Y-60000000D02*
G75*
G02*
X105000000Y-55000000I5000000J0D01*
G01*
X100000000Y-150000000D02*
X100000000Y-60000000D01*
X195000000Y-155000000D02*
X105000000Y-155000000D01*
X200000000Y-60000000D02*
X200000000Y-150000000D01*
X105000000Y-55000000D02*
X195000000Y-55000000D01*
X110000000Y-65000000D02*
X110000000Y-145000000D01*
X190000000Y-145000000D02*
X110000000Y-145000000D01*
X190000000Y-65000000D02*
X190000000Y-145000000D01*
X110000000Y-65000000D02*
X190000000Y-65000000D01*
%TO.C,H1*%
D11*
X104238095Y-56252380D02*
X104238095Y-55252380D01*
X104238095Y-55728571D02*
X104809523Y-55728571D01*
X104809523Y-56252380D02*
X104809523Y-55252380D01*
X105809523Y-56252380D02*
X105238095Y-56252380D01*
X105523809Y-56252380D02*
X105523809Y-55252380D01*
X105428571Y-55395238D01*
X105333333Y-55490476D01*
X105238095Y-55538095D01*
%TO.C,H2*%
X194238095Y-56252380D02*
X194238095Y-55252380D01*
X194238095Y-55728571D02*
X194809523Y-55728571D01*
X194809523Y-56252380D02*
X194809523Y-55252380D01*
X195238095Y-55347619D02*
X195285714Y-55300000D01*
X195380952Y-55252380D01*
X195619047Y-55252380D01*
X195714285Y-55300000D01*
X195761904Y-55347619D01*
X195809523Y-55442857D01*
X195809523Y-55538095D01*
X195761904Y-55680952D01*
X195190476Y-56252380D01*
X195809523Y-56252380D01*
%TO.C,H3*%
X194238095Y-146252380D02*
X194238095Y-145252380D01*
X194238095Y-145728571D02*
X194809523Y-145728571D01*
X194809523Y-146252380D02*
X194809523Y-145252380D01*
X195190476Y-145252380D02*
X195809523Y-145252380D01*
X195476190Y-145633333D01*
X195619047Y-145633333D01*
X195714285Y-145680952D01*
X195761904Y-145728571D01*
X195809523Y-145823809D01*
X195809523Y-146061904D01*
X195761904Y-146157142D01*
X195714285Y-146204761D01*
X195619047Y-146252380D01*
X195333333Y-146252380D01*
X195238095Y-146204761D01*
X195190476Y-146157142D01*
%TO.C,H4*%
X104238095Y-146252380D02*
X104238095Y-145252380D01*
X104238095Y-145728571D02*
X104809523Y-145728571D01*
X104809523Y-146252380D02*
X104809523Y-145252380D01*
X105714285Y-145585714D02*
X105714285Y-146252380D01*
X105476190Y-145204761D02*
X105238095Y-145919047D01*
X105857142Y-145919047D01*
%TD*%
M02*
