%TF.GenerationSoftware,KiCad,Pcbnew,(5.1.6)-1*%
%TF.CreationDate,2020-12-06T18:47:15+01:00*%
%TF.ProjectId,05_Contour,30355f43-6f6e-4746-9f75-722e6b696361,rev?*%
%TF.SameCoordinates,Original*%
%TF.FileFunction,Copper,L2,Bot*%
%TF.FilePolarity,Positive*%
%FSLAX46Y46*%
G04 Gerber Fmt 4.6, Leading zero omitted, Abs format (unit mm)*
G04 Created by KiCad (PCBNEW (5.1.6)-1) date 2020-12-06 18:47:15*
%MOMM*%
%LPD*%
G01*
G04 APERTURE LIST*
%TA.AperFunction,Profile*%
%ADD10C,0.150000*%
%TD*%
%TA.AperFunction,ComponentPad*%
%ADD11C,6.400000*%
%TD*%
%TA.AperFunction,ComponentPad*%
%ADD12C,0.800000*%
%TD*%
%TA.AperFunction,ViaPad*%
%ADD13C,1.000000*%
%TD*%
%TA.AperFunction,Conductor*%
%ADD14C,0.500000*%
%TD*%
%TA.AperFunction,Conductor*%
%ADD15C,0.254000*%
%TD*%
G04 APERTURE END LIST*
D10*
X195000000Y-55000000D02*
G75*
G02*
X200000000Y-60000000I0J-5000000D01*
G01*
X200000000Y-150000000D02*
G75*
G02*
X195000000Y-155000000I-5000000J0D01*
G01*
X105000000Y-155000000D02*
G75*
G02*
X100000000Y-150000000I0J5000000D01*
G01*
X100000000Y-60000000D02*
G75*
G02*
X105000000Y-55000000I5000000J0D01*
G01*
X100000000Y-150000000D02*
X100000000Y-60000000D01*
X195000000Y-155000000D02*
X105000000Y-155000000D01*
X200000000Y-60000000D02*
X200000000Y-150000000D01*
X105000000Y-55000000D02*
X195000000Y-55000000D01*
X110000000Y-65000000D02*
X110000000Y-145000000D01*
X190000000Y-145000000D02*
X110000000Y-145000000D01*
X190000000Y-65000000D02*
X190000000Y-145000000D01*
X110000000Y-65000000D02*
X190000000Y-65000000D01*
D11*
%TO.P,H1,1*%
%TO.N,GND*%
X105000000Y-60000000D03*
D12*
X107400000Y-60000000D03*
X106697056Y-61697056D03*
X105000000Y-62400000D03*
X103302944Y-61697056D03*
X102600000Y-60000000D03*
X103302944Y-58302944D03*
X105000000Y-57600000D03*
X106697056Y-58302944D03*
%TD*%
D11*
%TO.P,H2,1*%
%TO.N,GND*%
X195000000Y-60000000D03*
D12*
X197400000Y-60000000D03*
X196697056Y-61697056D03*
X195000000Y-62400000D03*
X193302944Y-61697056D03*
X192600000Y-60000000D03*
X193302944Y-58302944D03*
X195000000Y-57600000D03*
X196697056Y-58302944D03*
%TD*%
%TO.P,H3,1*%
%TO.N,GND*%
X196697056Y-148302944D03*
X195000000Y-147600000D03*
X193302944Y-148302944D03*
X192600000Y-150000000D03*
X193302944Y-151697056D03*
X195000000Y-152400000D03*
X196697056Y-151697056D03*
X197400000Y-150000000D03*
D11*
X195000000Y-150000000D03*
%TD*%
D12*
%TO.P,H4,1*%
%TO.N,GND*%
X106697056Y-148302944D03*
X105000000Y-147600000D03*
X103302944Y-148302944D03*
X102600000Y-150000000D03*
X103302944Y-151697056D03*
X105000000Y-152400000D03*
X106697056Y-151697056D03*
X107400000Y-150000000D03*
D11*
X105000000Y-150000000D03*
%TD*%
D13*
%TO.N,GND*%
X105000000Y-65000000D03*
X105000000Y-70000000D03*
X105000000Y-75000000D03*
X105000000Y-80000000D03*
X105000000Y-85000000D03*
X105000000Y-90000000D03*
X105000000Y-95000000D03*
X105000000Y-105000000D03*
X105000000Y-110000000D03*
X105000000Y-115000000D03*
X105000000Y-120000000D03*
X105000000Y-130000000D03*
X105000000Y-135000000D03*
X105000000Y-140000000D03*
X105000000Y-145000000D03*
X110000000Y-60000000D03*
X115000000Y-60000000D03*
X120000000Y-60000000D03*
X125000000Y-60000000D03*
X130000000Y-60000000D03*
X135000000Y-60000000D03*
X140000000Y-60000000D03*
X145000000Y-60000000D03*
X150000000Y-60000000D03*
X155000000Y-60000000D03*
X160000000Y-60000000D03*
X170000000Y-60000000D03*
X175000000Y-60000000D03*
X180000000Y-60000000D03*
X185000000Y-60000000D03*
X190000000Y-60000000D03*
X195000000Y-65000000D03*
X195000000Y-70000000D03*
X195000000Y-75000000D03*
X195000000Y-80000000D03*
X195000000Y-85000000D03*
X195000000Y-90000000D03*
X195000000Y-95000000D03*
X195000000Y-100000000D03*
X195000000Y-105000000D03*
X195000000Y-110000000D03*
X195000000Y-115000000D03*
X195000000Y-120000000D03*
X195000000Y-125000000D03*
X195000000Y-130000000D03*
X195000000Y-135000000D03*
X195000000Y-140000000D03*
X195000000Y-145000000D03*
X110000000Y-150000000D03*
X115000000Y-150000000D03*
X125000000Y-150000000D03*
X130000000Y-150000000D03*
X135000000Y-150000000D03*
X145000000Y-150000000D03*
X150000000Y-150000000D03*
X160000000Y-150000000D03*
X165000000Y-150000000D03*
X170000000Y-150000000D03*
X175000000Y-150000000D03*
X180000000Y-150000000D03*
X185000000Y-150000000D03*
X190000000Y-150000000D03*
X105000000Y-100000000D03*
X105000000Y-125000000D03*
X165000000Y-60000000D03*
X120000000Y-150000000D03*
X140000000Y-150000000D03*
X155000000Y-150000000D03*
%TD*%
D14*
%TO.N,GND*%
X195000000Y-150000000D02*
X185000000Y-150000000D01*
X105000000Y-60000000D02*
X105000000Y-136000000D01*
X105000000Y-136000000D02*
X105000000Y-150000000D01*
X195000000Y-60000000D02*
X195000000Y-98500000D01*
X195000000Y-98500000D02*
X195000000Y-150000000D01*
X181000000Y-60000000D02*
X182000000Y-60000000D01*
X175250000Y-60250000D02*
X175000000Y-60000000D01*
X117000000Y-150000000D02*
X113000000Y-150000000D01*
X113000000Y-150000000D02*
X105000000Y-150000000D01*
X127000000Y-60000000D02*
X133000000Y-60000000D01*
X133000000Y-150000000D02*
X127000000Y-150000000D01*
X117000000Y-60000000D02*
X118000000Y-60000000D01*
X118000000Y-60000000D02*
X127000000Y-60000000D01*
X105000000Y-60000000D02*
X113000000Y-60000000D01*
X113000000Y-60000000D02*
X117000000Y-60000000D01*
X127000000Y-150000000D02*
X118000000Y-150000000D01*
X118000000Y-150000000D02*
X117000000Y-150000000D01*
X147000000Y-60000000D02*
X149000000Y-60000000D01*
X149000000Y-150000000D02*
X147000000Y-150000000D01*
X147000000Y-150000000D02*
X146500000Y-150000000D01*
X149000000Y-60000000D02*
X153000000Y-60000000D01*
X153000000Y-150000000D02*
X149000000Y-150000000D01*
X171500000Y-150000000D02*
X167000000Y-150000000D01*
X167000000Y-150000000D02*
X161500000Y-150000000D01*
X167000000Y-60000000D02*
X173000000Y-60000000D01*
X178000000Y-150000000D02*
X173000000Y-150000000D01*
X173000000Y-150000000D02*
X171500000Y-150000000D01*
X195000000Y-150000000D02*
X187000000Y-150000000D01*
X182000000Y-60000000D02*
X187000000Y-60000000D01*
X187000000Y-60000000D02*
X195000000Y-60000000D01*
X133000000Y-60000000D02*
X138000000Y-60000000D01*
X138000000Y-60000000D02*
X147000000Y-60000000D01*
X138000000Y-150000000D02*
X133000000Y-150000000D01*
X153000000Y-60000000D02*
X158000000Y-60000000D01*
X158000000Y-60000000D02*
X167000000Y-60000000D01*
X161500000Y-150000000D02*
X158000000Y-150000000D01*
X158000000Y-150000000D02*
X153000000Y-150000000D01*
X173000000Y-60000000D02*
X178000000Y-60000000D01*
X178000000Y-60000000D02*
X181000000Y-60000000D01*
X141500000Y-150000000D02*
X138000000Y-150000000D01*
X146500000Y-150000000D02*
X141500000Y-150000000D01*
X181500000Y-150000000D02*
X178000000Y-150000000D01*
X187000000Y-150000000D02*
X181500000Y-150000000D01*
%TD*%
D15*
%TO.N,GND*%
G36*
X195759192Y-55780578D02*
G01*
X196494389Y-55981705D01*
X197182351Y-56309846D01*
X197801331Y-56754628D01*
X198331761Y-57301988D01*
X198756884Y-57934639D01*
X199063251Y-58632561D01*
X199242499Y-59379183D01*
X199290000Y-60026030D01*
X199290001Y-149968370D01*
X199219422Y-150759193D01*
X199018295Y-151494389D01*
X198690152Y-152182355D01*
X198245374Y-152801328D01*
X197698012Y-153331761D01*
X197065362Y-153756883D01*
X196367439Y-154063251D01*
X195620819Y-154242499D01*
X194973970Y-154290000D01*
X105031618Y-154290000D01*
X104240807Y-154219422D01*
X103505611Y-154018295D01*
X102817645Y-153690152D01*
X102198672Y-153245374D01*
X101671020Y-152700881D01*
X102478724Y-152700881D01*
X102838912Y-153190548D01*
X103502882Y-153550849D01*
X104224385Y-153774694D01*
X104975695Y-153853480D01*
X105727938Y-153784178D01*
X106452208Y-153569452D01*
X107120670Y-153217555D01*
X107161088Y-153190548D01*
X107521276Y-152700881D01*
X192478724Y-152700881D01*
X192838912Y-153190548D01*
X193502882Y-153550849D01*
X194224385Y-153774694D01*
X194975695Y-153853480D01*
X195727938Y-153784178D01*
X196452208Y-153569452D01*
X197120670Y-153217555D01*
X197161088Y-153190548D01*
X197521276Y-152700881D01*
X195000000Y-150179605D01*
X192478724Y-152700881D01*
X107521276Y-152700881D01*
X105000000Y-150179605D01*
X102478724Y-152700881D01*
X101671020Y-152700881D01*
X101668239Y-152698012D01*
X101243117Y-152065362D01*
X100936749Y-151367439D01*
X100757501Y-150620819D01*
X100710127Y-149975695D01*
X101146520Y-149975695D01*
X101215822Y-150727938D01*
X101430548Y-151452208D01*
X101782445Y-152120670D01*
X101809452Y-152161088D01*
X102299119Y-152521276D01*
X104820395Y-150000000D01*
X105179605Y-150000000D01*
X107700881Y-152521276D01*
X108190548Y-152161088D01*
X108550849Y-151497118D01*
X108774694Y-150775615D01*
X108853480Y-150024305D01*
X108849002Y-149975695D01*
X191146520Y-149975695D01*
X191215822Y-150727938D01*
X191430548Y-151452208D01*
X191782445Y-152120670D01*
X191809452Y-152161088D01*
X192299119Y-152521276D01*
X194820395Y-150000000D01*
X195179605Y-150000000D01*
X197700881Y-152521276D01*
X198190548Y-152161088D01*
X198550849Y-151497118D01*
X198774694Y-150775615D01*
X198853480Y-150024305D01*
X198784178Y-149272062D01*
X198569452Y-148547792D01*
X198217555Y-147879330D01*
X198190548Y-147838912D01*
X197700881Y-147478724D01*
X195179605Y-150000000D01*
X194820395Y-150000000D01*
X192299119Y-147478724D01*
X191809452Y-147838912D01*
X191449151Y-148502882D01*
X191225306Y-149224385D01*
X191146520Y-149975695D01*
X108849002Y-149975695D01*
X108784178Y-149272062D01*
X108569452Y-148547792D01*
X108217555Y-147879330D01*
X108190548Y-147838912D01*
X107700881Y-147478724D01*
X105179605Y-150000000D01*
X104820395Y-150000000D01*
X102299119Y-147478724D01*
X101809452Y-147838912D01*
X101449151Y-148502882D01*
X101225306Y-149224385D01*
X101146520Y-149975695D01*
X100710127Y-149975695D01*
X100710000Y-149973970D01*
X100710000Y-147299119D01*
X102478724Y-147299119D01*
X105000000Y-149820395D01*
X107521276Y-147299119D01*
X192478724Y-147299119D01*
X195000000Y-149820395D01*
X197521276Y-147299119D01*
X197161088Y-146809452D01*
X196497118Y-146449151D01*
X195775615Y-146225306D01*
X195024305Y-146146520D01*
X194272062Y-146215822D01*
X193547792Y-146430548D01*
X192879330Y-146782445D01*
X192838912Y-146809452D01*
X192478724Y-147299119D01*
X107521276Y-147299119D01*
X107161088Y-146809452D01*
X106497118Y-146449151D01*
X105775615Y-146225306D01*
X105024305Y-146146520D01*
X104272062Y-146215822D01*
X103547792Y-146430548D01*
X102879330Y-146782445D01*
X102838912Y-146809452D01*
X102478724Y-147299119D01*
X100710000Y-147299119D01*
X100710000Y-65000000D01*
X109286565Y-65000000D01*
X109290000Y-65034877D01*
X109290001Y-144965113D01*
X109286565Y-145000000D01*
X109300273Y-145139184D01*
X109340872Y-145273020D01*
X109406800Y-145396363D01*
X109495525Y-145504475D01*
X109603637Y-145593200D01*
X109726980Y-145659128D01*
X109860816Y-145699727D01*
X109965123Y-145710000D01*
X110000000Y-145713435D01*
X110034877Y-145710000D01*
X189965123Y-145710000D01*
X190000000Y-145713435D01*
X190034877Y-145710000D01*
X190139184Y-145699727D01*
X190273020Y-145659128D01*
X190396363Y-145593200D01*
X190504475Y-145504475D01*
X190593200Y-145396363D01*
X190659128Y-145273020D01*
X190699727Y-145139184D01*
X190713435Y-145000000D01*
X190710000Y-144965123D01*
X190710000Y-65034877D01*
X190713435Y-65000000D01*
X190699727Y-64860816D01*
X190659128Y-64726980D01*
X190593200Y-64603637D01*
X190504475Y-64495525D01*
X190396363Y-64406800D01*
X190273020Y-64340872D01*
X190139184Y-64300273D01*
X190034877Y-64290000D01*
X190000000Y-64286565D01*
X189965123Y-64290000D01*
X110034877Y-64290000D01*
X110000000Y-64286565D01*
X109965123Y-64290000D01*
X109860816Y-64300273D01*
X109726980Y-64340872D01*
X109603637Y-64406800D01*
X109495525Y-64495525D01*
X109406800Y-64603637D01*
X109340872Y-64726980D01*
X109300273Y-64860816D01*
X109286565Y-65000000D01*
X100710000Y-65000000D01*
X100710000Y-62700881D01*
X102478724Y-62700881D01*
X102838912Y-63190548D01*
X103502882Y-63550849D01*
X104224385Y-63774694D01*
X104975695Y-63853480D01*
X105727938Y-63784178D01*
X106452208Y-63569452D01*
X107120670Y-63217555D01*
X107161088Y-63190548D01*
X107521276Y-62700881D01*
X192478724Y-62700881D01*
X192838912Y-63190548D01*
X193502882Y-63550849D01*
X194224385Y-63774694D01*
X194975695Y-63853480D01*
X195727938Y-63784178D01*
X196452208Y-63569452D01*
X197120670Y-63217555D01*
X197161088Y-63190548D01*
X197521276Y-62700881D01*
X195000000Y-60179605D01*
X192478724Y-62700881D01*
X107521276Y-62700881D01*
X105000000Y-60179605D01*
X102478724Y-62700881D01*
X100710000Y-62700881D01*
X100710000Y-60031618D01*
X100714991Y-59975695D01*
X101146520Y-59975695D01*
X101215822Y-60727938D01*
X101430548Y-61452208D01*
X101782445Y-62120670D01*
X101809452Y-62161088D01*
X102299119Y-62521276D01*
X104820395Y-60000000D01*
X105179605Y-60000000D01*
X107700881Y-62521276D01*
X108190548Y-62161088D01*
X108550849Y-61497118D01*
X108774694Y-60775615D01*
X108853480Y-60024305D01*
X108849002Y-59975695D01*
X191146520Y-59975695D01*
X191215822Y-60727938D01*
X191430548Y-61452208D01*
X191782445Y-62120670D01*
X191809452Y-62161088D01*
X192299119Y-62521276D01*
X194820395Y-60000000D01*
X195179605Y-60000000D01*
X197700881Y-62521276D01*
X198190548Y-62161088D01*
X198550849Y-61497118D01*
X198774694Y-60775615D01*
X198853480Y-60024305D01*
X198784178Y-59272062D01*
X198569452Y-58547792D01*
X198217555Y-57879330D01*
X198190548Y-57838912D01*
X197700881Y-57478724D01*
X195179605Y-60000000D01*
X194820395Y-60000000D01*
X192299119Y-57478724D01*
X191809452Y-57838912D01*
X191449151Y-58502882D01*
X191225306Y-59224385D01*
X191146520Y-59975695D01*
X108849002Y-59975695D01*
X108784178Y-59272062D01*
X108569452Y-58547792D01*
X108217555Y-57879330D01*
X108190548Y-57838912D01*
X107700881Y-57478724D01*
X105179605Y-60000000D01*
X104820395Y-60000000D01*
X102299119Y-57478724D01*
X101809452Y-57838912D01*
X101449151Y-58502882D01*
X101225306Y-59224385D01*
X101146520Y-59975695D01*
X100714991Y-59975695D01*
X100780578Y-59240808D01*
X100981705Y-58505611D01*
X101309846Y-57817649D01*
X101682447Y-57299119D01*
X102478724Y-57299119D01*
X105000000Y-59820395D01*
X107521276Y-57299119D01*
X192478724Y-57299119D01*
X195000000Y-59820395D01*
X197521276Y-57299119D01*
X197161088Y-56809452D01*
X196497118Y-56449151D01*
X195775615Y-56225306D01*
X195024305Y-56146520D01*
X194272062Y-56215822D01*
X193547792Y-56430548D01*
X192879330Y-56782445D01*
X192838912Y-56809452D01*
X192478724Y-57299119D01*
X107521276Y-57299119D01*
X107161088Y-56809452D01*
X106497118Y-56449151D01*
X105775615Y-56225306D01*
X105024305Y-56146520D01*
X104272062Y-56215822D01*
X103547792Y-56430548D01*
X102879330Y-56782445D01*
X102838912Y-56809452D01*
X102478724Y-57299119D01*
X101682447Y-57299119D01*
X101754628Y-57198669D01*
X102301988Y-56668239D01*
X102934639Y-56243116D01*
X103632561Y-55936749D01*
X104379183Y-55757501D01*
X105026030Y-55710000D01*
X194968382Y-55710000D01*
X195759192Y-55780578D01*
G37*
X195759192Y-55780578D02*
X196494389Y-55981705D01*
X197182351Y-56309846D01*
X197801331Y-56754628D01*
X198331761Y-57301988D01*
X198756884Y-57934639D01*
X199063251Y-58632561D01*
X199242499Y-59379183D01*
X199290000Y-60026030D01*
X199290001Y-149968370D01*
X199219422Y-150759193D01*
X199018295Y-151494389D01*
X198690152Y-152182355D01*
X198245374Y-152801328D01*
X197698012Y-153331761D01*
X197065362Y-153756883D01*
X196367439Y-154063251D01*
X195620819Y-154242499D01*
X194973970Y-154290000D01*
X105031618Y-154290000D01*
X104240807Y-154219422D01*
X103505611Y-154018295D01*
X102817645Y-153690152D01*
X102198672Y-153245374D01*
X101671020Y-152700881D01*
X102478724Y-152700881D01*
X102838912Y-153190548D01*
X103502882Y-153550849D01*
X104224385Y-153774694D01*
X104975695Y-153853480D01*
X105727938Y-153784178D01*
X106452208Y-153569452D01*
X107120670Y-153217555D01*
X107161088Y-153190548D01*
X107521276Y-152700881D01*
X192478724Y-152700881D01*
X192838912Y-153190548D01*
X193502882Y-153550849D01*
X194224385Y-153774694D01*
X194975695Y-153853480D01*
X195727938Y-153784178D01*
X196452208Y-153569452D01*
X197120670Y-153217555D01*
X197161088Y-153190548D01*
X197521276Y-152700881D01*
X195000000Y-150179605D01*
X192478724Y-152700881D01*
X107521276Y-152700881D01*
X105000000Y-150179605D01*
X102478724Y-152700881D01*
X101671020Y-152700881D01*
X101668239Y-152698012D01*
X101243117Y-152065362D01*
X100936749Y-151367439D01*
X100757501Y-150620819D01*
X100710127Y-149975695D01*
X101146520Y-149975695D01*
X101215822Y-150727938D01*
X101430548Y-151452208D01*
X101782445Y-152120670D01*
X101809452Y-152161088D01*
X102299119Y-152521276D01*
X104820395Y-150000000D01*
X105179605Y-150000000D01*
X107700881Y-152521276D01*
X108190548Y-152161088D01*
X108550849Y-151497118D01*
X108774694Y-150775615D01*
X108853480Y-150024305D01*
X108849002Y-149975695D01*
X191146520Y-149975695D01*
X191215822Y-150727938D01*
X191430548Y-151452208D01*
X191782445Y-152120670D01*
X191809452Y-152161088D01*
X192299119Y-152521276D01*
X194820395Y-150000000D01*
X195179605Y-150000000D01*
X197700881Y-152521276D01*
X198190548Y-152161088D01*
X198550849Y-151497118D01*
X198774694Y-150775615D01*
X198853480Y-150024305D01*
X198784178Y-149272062D01*
X198569452Y-148547792D01*
X198217555Y-147879330D01*
X198190548Y-147838912D01*
X197700881Y-147478724D01*
X195179605Y-150000000D01*
X194820395Y-150000000D01*
X192299119Y-147478724D01*
X191809452Y-147838912D01*
X191449151Y-148502882D01*
X191225306Y-149224385D01*
X191146520Y-149975695D01*
X108849002Y-149975695D01*
X108784178Y-149272062D01*
X108569452Y-148547792D01*
X108217555Y-147879330D01*
X108190548Y-147838912D01*
X107700881Y-147478724D01*
X105179605Y-150000000D01*
X104820395Y-150000000D01*
X102299119Y-147478724D01*
X101809452Y-147838912D01*
X101449151Y-148502882D01*
X101225306Y-149224385D01*
X101146520Y-149975695D01*
X100710127Y-149975695D01*
X100710000Y-149973970D01*
X100710000Y-147299119D01*
X102478724Y-147299119D01*
X105000000Y-149820395D01*
X107521276Y-147299119D01*
X192478724Y-147299119D01*
X195000000Y-149820395D01*
X197521276Y-147299119D01*
X197161088Y-146809452D01*
X196497118Y-146449151D01*
X195775615Y-146225306D01*
X195024305Y-146146520D01*
X194272062Y-146215822D01*
X193547792Y-146430548D01*
X192879330Y-146782445D01*
X192838912Y-146809452D01*
X192478724Y-147299119D01*
X107521276Y-147299119D01*
X107161088Y-146809452D01*
X106497118Y-146449151D01*
X105775615Y-146225306D01*
X105024305Y-146146520D01*
X104272062Y-146215822D01*
X103547792Y-146430548D01*
X102879330Y-146782445D01*
X102838912Y-146809452D01*
X102478724Y-147299119D01*
X100710000Y-147299119D01*
X100710000Y-65000000D01*
X109286565Y-65000000D01*
X109290000Y-65034877D01*
X109290001Y-144965113D01*
X109286565Y-145000000D01*
X109300273Y-145139184D01*
X109340872Y-145273020D01*
X109406800Y-145396363D01*
X109495525Y-145504475D01*
X109603637Y-145593200D01*
X109726980Y-145659128D01*
X109860816Y-145699727D01*
X109965123Y-145710000D01*
X110000000Y-145713435D01*
X110034877Y-145710000D01*
X189965123Y-145710000D01*
X190000000Y-145713435D01*
X190034877Y-145710000D01*
X190139184Y-145699727D01*
X190273020Y-145659128D01*
X190396363Y-145593200D01*
X190504475Y-145504475D01*
X190593200Y-145396363D01*
X190659128Y-145273020D01*
X190699727Y-145139184D01*
X190713435Y-145000000D01*
X190710000Y-144965123D01*
X190710000Y-65034877D01*
X190713435Y-65000000D01*
X190699727Y-64860816D01*
X190659128Y-64726980D01*
X190593200Y-64603637D01*
X190504475Y-64495525D01*
X190396363Y-64406800D01*
X190273020Y-64340872D01*
X190139184Y-64300273D01*
X190034877Y-64290000D01*
X190000000Y-64286565D01*
X189965123Y-64290000D01*
X110034877Y-64290000D01*
X110000000Y-64286565D01*
X109965123Y-64290000D01*
X109860816Y-64300273D01*
X109726980Y-64340872D01*
X109603637Y-64406800D01*
X109495525Y-64495525D01*
X109406800Y-64603637D01*
X109340872Y-64726980D01*
X109300273Y-64860816D01*
X109286565Y-65000000D01*
X100710000Y-65000000D01*
X100710000Y-62700881D01*
X102478724Y-62700881D01*
X102838912Y-63190548D01*
X103502882Y-63550849D01*
X104224385Y-63774694D01*
X104975695Y-63853480D01*
X105727938Y-63784178D01*
X106452208Y-63569452D01*
X107120670Y-63217555D01*
X107161088Y-63190548D01*
X107521276Y-62700881D01*
X192478724Y-62700881D01*
X192838912Y-63190548D01*
X193502882Y-63550849D01*
X194224385Y-63774694D01*
X194975695Y-63853480D01*
X195727938Y-63784178D01*
X196452208Y-63569452D01*
X197120670Y-63217555D01*
X197161088Y-63190548D01*
X197521276Y-62700881D01*
X195000000Y-60179605D01*
X192478724Y-62700881D01*
X107521276Y-62700881D01*
X105000000Y-60179605D01*
X102478724Y-62700881D01*
X100710000Y-62700881D01*
X100710000Y-60031618D01*
X100714991Y-59975695D01*
X101146520Y-59975695D01*
X101215822Y-60727938D01*
X101430548Y-61452208D01*
X101782445Y-62120670D01*
X101809452Y-62161088D01*
X102299119Y-62521276D01*
X104820395Y-60000000D01*
X105179605Y-60000000D01*
X107700881Y-62521276D01*
X108190548Y-62161088D01*
X108550849Y-61497118D01*
X108774694Y-60775615D01*
X108853480Y-60024305D01*
X108849002Y-59975695D01*
X191146520Y-59975695D01*
X191215822Y-60727938D01*
X191430548Y-61452208D01*
X191782445Y-62120670D01*
X191809452Y-62161088D01*
X192299119Y-62521276D01*
X194820395Y-60000000D01*
X195179605Y-60000000D01*
X197700881Y-62521276D01*
X198190548Y-62161088D01*
X198550849Y-61497118D01*
X198774694Y-60775615D01*
X198853480Y-60024305D01*
X198784178Y-59272062D01*
X198569452Y-58547792D01*
X198217555Y-57879330D01*
X198190548Y-57838912D01*
X197700881Y-57478724D01*
X195179605Y-60000000D01*
X194820395Y-60000000D01*
X192299119Y-57478724D01*
X191809452Y-57838912D01*
X191449151Y-58502882D01*
X191225306Y-59224385D01*
X191146520Y-59975695D01*
X108849002Y-59975695D01*
X108784178Y-59272062D01*
X108569452Y-58547792D01*
X108217555Y-57879330D01*
X108190548Y-57838912D01*
X107700881Y-57478724D01*
X105179605Y-60000000D01*
X104820395Y-60000000D01*
X102299119Y-57478724D01*
X101809452Y-57838912D01*
X101449151Y-58502882D01*
X101225306Y-59224385D01*
X101146520Y-59975695D01*
X100714991Y-59975695D01*
X100780578Y-59240808D01*
X100981705Y-58505611D01*
X101309846Y-57817649D01*
X101682447Y-57299119D01*
X102478724Y-57299119D01*
X105000000Y-59820395D01*
X107521276Y-57299119D01*
X192478724Y-57299119D01*
X195000000Y-59820395D01*
X197521276Y-57299119D01*
X197161088Y-56809452D01*
X196497118Y-56449151D01*
X195775615Y-56225306D01*
X195024305Y-56146520D01*
X194272062Y-56215822D01*
X193547792Y-56430548D01*
X192879330Y-56782445D01*
X192838912Y-56809452D01*
X192478724Y-57299119D01*
X107521276Y-57299119D01*
X107161088Y-56809452D01*
X106497118Y-56449151D01*
X105775615Y-56225306D01*
X105024305Y-56146520D01*
X104272062Y-56215822D01*
X103547792Y-56430548D01*
X102879330Y-56782445D01*
X102838912Y-56809452D01*
X102478724Y-57299119D01*
X101682447Y-57299119D01*
X101754628Y-57198669D01*
X102301988Y-56668239D01*
X102934639Y-56243116D01*
X103632561Y-55936749D01*
X104379183Y-55757501D01*
X105026030Y-55710000D01*
X194968382Y-55710000D01*
X195759192Y-55780578D01*
%TD*%
M02*
