M48
; DRILL file {KiCad (5.1.6)-1} date 12/06/20 18:47:18
; FORMAT={-:-/ absolute / inch / decimal}
; #@! TF.CreationDate,2020-12-06T18:47:18+01:00
; #@! TF.GenerationSoftware,Kicad,Pcbnew,(5.1.6)-1
; #@! TF.FileFunction,Plated,1,2,PTH
FMAT,2
INCH
T1C0.0197
T2C0.0236
T3C0.1260
%
G90
G05
T1
X4.0394Y-2.3622
X4.067Y-2.2954
X4.067Y-2.429
X4.1339Y-2.2677
X4.1339Y-2.4567
X4.2007Y-2.2954
X4.2007Y-2.429
X4.2283Y-2.3622
X4.0394Y-5.9055
X4.067Y-5.8387
X4.067Y-5.9723
X4.1339Y-5.811
X4.1339Y-6.0
X4.2007Y-5.8387
X4.2007Y-5.9723
X4.2283Y-5.9055
X7.5827Y-2.3622
X7.6104Y-2.2954
X7.6104Y-2.429
X7.6772Y-2.2677
X7.6772Y-2.4567
X7.744Y-2.2954
X7.744Y-2.429
X7.7717Y-2.3622
X7.5827Y-5.9055
X7.6104Y-5.8387
X7.6104Y-5.9723
X7.6772Y-5.811
X7.6772Y-6.0
X7.744Y-5.8387
X7.744Y-5.9723
X7.7717Y-5.9055
T2
X4.1339Y-2.5591
X4.1339Y-2.7559
X4.1339Y-2.9528
X4.1339Y-3.1496
X4.1339Y-3.3465
X4.1339Y-3.5433
X4.1339Y-3.7402
X4.1339Y-3.937
X4.1339Y-4.1339
X4.1339Y-4.3307
X4.1339Y-4.5276
X4.1339Y-4.7244
X4.1339Y-4.9213
X4.1339Y-5.1181
X4.1339Y-5.315
X4.1339Y-5.5118
X4.1339Y-5.7087
X4.3307Y-2.3622
X4.3307Y-5.9055
X4.5276Y-2.3622
X4.5276Y-5.9055
X4.7244Y-2.3622
X4.7244Y-5.9055
X4.9213Y-2.3622
X4.9213Y-5.9055
X5.1181Y-2.3622
X5.1181Y-5.9055
X5.315Y-2.3622
X5.315Y-5.9055
X5.5118Y-2.3622
X5.5118Y-5.9055
X5.7087Y-2.3622
X5.7087Y-5.9055
X5.9055Y-2.3622
X5.9055Y-5.9055
X6.1024Y-2.3622
X6.1024Y-5.9055
X6.2992Y-2.3622
X6.2992Y-5.9055
X6.4961Y-2.3622
X6.4961Y-5.9055
X6.6929Y-2.3622
X6.6929Y-5.9055
X6.8898Y-2.3622
X6.8898Y-5.9055
X7.0866Y-2.3622
X7.0866Y-5.9055
X7.2835Y-2.3622
X7.2835Y-5.9055
X7.4803Y-2.3622
X7.4803Y-5.9055
X7.6772Y-2.5591
X7.6772Y-2.7559
X7.6772Y-2.9528
X7.6772Y-3.1496
X7.6772Y-3.3465
X7.6772Y-3.5433
X7.6772Y-3.7402
X7.6772Y-3.937
X7.6772Y-4.1339
X7.6772Y-4.3307
X7.6772Y-4.5276
X7.6772Y-4.7244
X7.6772Y-4.9213
X7.6772Y-5.1181
X7.6772Y-5.315
X7.6772Y-5.5118
X7.6772Y-5.7087
T3
X7.6772Y-2.3622
X7.6772Y-5.9055
X4.1339Y-2.3622
X4.1339Y-5.9055
T0
M30
